<svg width="1054" height="721" viewBox="0 0 1054 721" fill="none" xmlns="http://www.w3.org/2000/svg">
<path d="M511.004 402.805L730.004 355L644.008 553.777L730.004 721H511.004L568.645 619.533L511.004 402.805Z" fill="#29395F"/>
<path d="M92.9858 53.5299L317.021 46.1426L196.476 226.078L250.793 406.101L35.408 366.472L24.7926 225.22L92.9858 53.5299Z" fill="#29395F"/>
<rect x="411.004" y="612.926" width="34.5296" height="36.1344" transform="rotate(-48.6615 411.004 612.926)" fill="#355BAC"/>
<path d="M976.91 334L1012.73 351.807L976.91 401.5L950.2 387.727L976.91 334Z" fill="#6F91DB"/>
<path d="M808.766 19.0935L835.766 85.0939L815.265 133.594L735.264 70.5936L808.766 19.0935Z" fill="#2E539D"/>
<path d="M118.91 104L138.504 130L118.91 171.5L92.2002 157.727L118.91 104Z" fill="#90CCEB"/>
<path d="M115.949 570L130.554 584.48L122.043 603L104.09 593.855L115.949 570Z" fill="#8BABDE"/>
<path d="M908.387 284.68L1106.46 188.248L1046.83 88.8764L908.387 284.68Z" fill="#8FCDF0"/>
<path d="M786.647 621.227L738.245 618.685L702.529 600.349L686.538 617.773L704.423 632.824L727.852 643.979L751.696 648.547L776.781 647.951L786.647 621.227Z" fill="#3169BD"/>
<path d="M849.279 626.808L836.039 606.104L786.647 621.227L776.781 647.951L819.058 638.636L849.279 626.808Z" fill="#517BD1"/>
<path d="M958.586 543.111L928.597 544.996L880.64 581.004L836.039 606.104L849.279 626.808L889.244 606.207L925.327 578.918L958.586 543.111Z" fill="#949FE9"/>
<path d="M980.379 478.418L974.919 478.552L969.422 477.796L947.711 521.61L928.597 544.996L958.586 543.111L972.926 524L980.855 504.799L982.203 490.688L980.379 478.418Z" fill="#8ECCEE"/>
</svg>
