<svg width="807" height="1124" viewBox="0 0 807 1124" fill="none" xmlns="http://www.w3.org/2000/svg">
<path d="M660.514 240.977L695.796 208.678L711.55 276.222L660.514 240.977Z" fill="#78BEEA"/>
<path d="M489.851 176.376L503.483 159.266L532.285 208.581L489.851 176.376Z" fill="#3169BD"/>
<path d="M705.445 602.517L719.452 518.962L741.12 653.451L705.445 602.517Z" fill="#78BEEA"/>
<path d="M513.944 1011.37L514.609 991.618L561.32 970.694L605.41 972.199L621.8 1002.42L615.342 1028.01L582.134 1035.66L529.517 1028.93L513.944 1011.37Z" fill="#8ECCEE"/>
<path d="M497.8 1010.82L498.465 991.067L453.27 967.006L409.18 965.501L390.794 994.532L395.514 1020.51L428.131 1030.41L481.081 1027.27L497.8 1010.82Z" fill="#8ECCEE"/>
<path d="M637.124 953.513L666.181 958.35L688.251 986.015L676.408 1005.38L621.799 1002.42L605.409 972.203L637.124 953.513Z" fill="#78BEEA"/>
<path d="M378.794 944.694L349.479 947.538L325.597 973.635L336.109 993.766L390.793 994.535L409.178 965.504L378.794 944.694Z" fill="#78BEEA"/>
<path d="M325.597 973.625L286.738 945.69L349.473 947.612L325.597 973.625Z" fill="#3169BD"/>
<path d="M286.595 1042.6L317.465 1069.2L254.006 1067.03L286.595 1042.6Z" fill="#8ECCEE"/>
<path d="M284.863 1094.17L318.04 1068.94L253.457 1066.73L284.863 1094.17Z" fill="#949FE9"/>
<path d="M253.449 1066.73L284.853 1094.17L205.988 1091.48L253.449 1066.73Z" fill="#3169BD"/>
<path d="M254.041 1067.85L286.598 1042.6L218.493 1034.23L254.041 1067.85Z" fill="#517BD1"/>
<path d="M218.489 1034.24L253.445 1067.29L206 1091.48L144.148 1044.89L218.489 1034.24Z" fill="#949FE9"/>
<path d="M205.988 1091.48L139.668 1084.22L144.123 1044.85L205.988 1091.48Z" fill="#517BD1"/>
<path d="M144.15 1044.88L219.112 1034.26L109.648 998.663L144.15 1044.88Z" fill="#3169BD"/>
<path d="M42.2055 1044.7L144.156 1044.88L139.723 1084.28L42.2055 1044.7Z" fill="#3169BD"/>
<path d="M54.3263 998.427L144.151 1044.88L42.1986 1044.7L54.3263 998.427Z" fill="#517BD1"/>
<path d="M54.3233 998.422L144.148 1044.88L70.9827 946.814L54.3233 998.422Z" fill="#949FE9"/>
<path d="M3.86497 982.966L70.9832 946.811L42.1962 1044.69L3.86497 982.966Z" fill="#3169BD"/>
<path d="M34.5973 919.761L126.647 881.711L70.9878 946.817L3.86956 982.972L34.5973 919.761Z" fill="#517BD1"/>
<path d="M129.168 954.291L110.587 970.683L109.644 998.662L70.9805 946.812L129.168 954.291Z" fill="#3169BD"/>
<path d="M129.17 954.295L181.754 906.659L70.3606 946.795L129.17 954.295Z" fill="#517BD1"/>
<path d="M126.643 881.71L181.756 906.659L70.9836 946.816L126.643 881.71Z" fill="#949FE9"/>
<path d="M181.749 906.658L287.978 945.984L128.544 954.273L181.749 906.658Z" fill="#3169BD"/>
<path d="M181.747 906.658L264.905 874.345L126.639 881.709L181.747 906.658Z" fill="#517BD1"/>
<path d="M181.756 906.653L264.909 874.341L287.364 945.959L181.756 906.653Z" fill="#949FE9"/>
<path d="M731.383 960.57L688.251 986.01L666.18 958.344L731.383 960.57Z" fill="#3169BD"/>
<path d="M696.965 893.484L731.386 960.567L666.182 958.342L637.125 953.505L605.41 972.195L696.965 893.484Z" fill="#517BD1"/>
<path d="M696.968 893.484L780.209 821.63L731.388 960.567L696.968 893.484Z" fill="#517BD1"/>
<path d="M780.208 821.637L696.966 893.492L681.955 748.531L780.208 821.637Z" fill="#949FE9"/>
<path d="M696.968 893.493L605.413 972.204L681.957 748.533L696.968 893.493Z" fill="#918FEA"/>
<path d="M681.953 748.531L741.131 652.787L780.205 821.637L681.953 748.531Z" fill="#8ECCEE"/>
<path d="M598.987 812.15L682.628 746.9L605.408 972.196L598.987 812.15Z" fill="#949FE9"/>
<path d="M598.986 812.155L605.407 972.201L561.317 970.696L514.606 991.62L598.986 812.155Z" fill="#517BD1"/>
<path d="M514.611 991.62L529.788 854.83L599.631 811.628L514.611 991.62Z" fill="#949FE9"/>
<path d="M323.135 880.723L409.182 965.496L378.798 944.686L349.482 947.53L287.365 945.959L323.135 880.723Z" fill="#517BD1"/>
<path d="M323.133 880.723L287.345 946.508L241.85 802.154L323.133 880.723Z" fill="#517BD1"/>
<path d="M323.713 881.848L349.084 737.716L409.176 965.502L323.713 881.848Z" fill="#918FEA"/>
<path d="M424.608 802.902L498.468 991.064L452.652 966.981L409.183 965.497L424.608 802.902Z" fill="#517BD1"/>
<path d="M491.304 852.966L498.464 991.068L424.604 802.906L491.304 852.966Z" fill="#949FE9"/>
<path d="M323.735 881.297L349.089 737.714L241.85 802.158L323.735 881.297Z" fill="#949FE9"/>
<path d="M424.6 802.9L409.175 965.496L349.084 737.71L424.6 802.9Z" fill="#949FE9"/>
<path d="M491.31 852.962L488.745 781.474L513.769 776.836L537.729 785.343L529.791 854.825L516.244 980.137L497.614 979.501L491.31 852.962Z" fill="#517BD1"/>
<path d="M537.745 784.8L644.876 668.174L598.993 812.155L529.79 854.83L537.745 784.8Z" fill="#3169BD"/>
<path d="M387.77 659.938L488.743 781.469L491.911 853.527L423.365 802.855L387.77 659.938Z" fill="#3169BD"/>
<path d="M349.088 737.711L387.767 659.942L423.381 802.31L349.088 737.711Z" fill="#517BD1"/>
<path d="M349.088 737.715L241.85 802.159L293.44 636.404L349.088 737.715Z" fill="#8ECCEE"/>
<path d="M293.447 636.406L337.337 588.473L349.095 737.717L293.447 636.406Z" fill="#918FEA"/>
<path d="M683.213 748.02L598.988 812.152L644.87 668.171L683.213 748.02Z" fill="#517BD1"/>
<path d="M645.495 668.194L537.706 785.895L586.55 590.937L645.495 668.194Z" fill="#8ECCEE"/>
<path d="M741.137 652.79L682.616 747.45L705.526 602.692L741.137 652.79Z" fill="#918FEA"/>
<path d="M644.235 668.7L719.996 486.185L719.508 519.123L682.615 746.895L644.235 668.7Z" fill="#949FE9"/>
<path d="M625.022 537.881L720.018 486.201L644.879 668.178L625.022 537.881Z" fill="#517BD1"/>
<path d="M586.548 590.935L625.015 537.874L644.872 668.171L586.548 590.935Z" fill="#3169BD"/>
<path d="M517.263 673.153L586.555 590.936L537.73 785.346L513.77 776.839L517.263 673.153Z" fill="#949FE9"/>
<path d="M454.168 589.711L517.257 673.151L513.764 776.837L488.722 782.024L454.168 589.711Z" fill="#918FEA"/>
<path d="M387.765 659.943L454.167 589.711L489.341 782.045L387.765 659.943Z" fill="#8ECCEE"/>
<path d="M387.768 659.945L349.071 738.263L327.551 472.798L387.768 659.945Z" fill="#949FE9"/>
<path d="M337.311 589.013L293.439 636.397L327.549 472.791L337.311 589.013Z" fill="#78BEEA"/>
<path d="M586.526 591.491L517.253 673.159L521.16 538.73L586.526 591.491Z" fill="#8ECCEE"/>
<path d="M454.168 589.711L521.164 538.723L517.239 673.7L454.168 589.711Z" fill="#78BEEA"/>
<path d="M586.535 591.481L625.022 537.871L521.169 538.72L586.535 591.481Z" fill="#949FE9"/>
<path d="M454.168 589.707L387.767 659.939L420.073 531.423L454.168 589.707Z" fill="#3169BD"/>
<path d="M454.17 589.71L521.166 538.721L420.074 531.426L454.17 589.71Z" fill="#949FE9"/>
<path d="M420.071 531.428L387.746 660.493L327.548 472.797L420.071 531.428Z" fill="#517BD1"/>
<path d="M720.016 486.194L625.001 538.424L646.31 367.241L720.016 486.194Z" fill="#8ECCEE"/>
<path d="M526.418 419.719L625.02 537.808L522.41 538.699L526.418 419.719Z" fill="#8ECCEE"/>
<path d="M526.416 419.72L522.405 538.767L420.072 531.429L526.416 419.72Z" fill="#8ECCEE"/>
<path d="M408.577 355.824L420.069 531.422L327.545 472.791L408.577 355.824Z" fill="#8ECCEE"/>
<path d="M625.002 538.42L646.311 367.237L526.42 419.715L625.002 538.42Z" fill="#949FE9"/>
<path d="M408.576 355.831L327.545 472.797L360.923 312.462L408.576 355.831Z" fill="#949FE9"/>
<path d="M646.304 367.238L698.082 325.066L719.991 486.74L646.304 367.238Z" fill="#949FE9"/>
<path d="M420.067 531.426L526.411 419.717L408.575 355.828L420.067 531.426Z" fill="#949FE9"/>
<path d="M527.509 387.351L613.313 350.19L646.309 367.24L526.418 419.718L527.509 387.351Z" fill="#3169BD"/>
<path d="M443.179 343.83L527.492 387.357L526.396 419.731L412.218 358.157L443.179 343.83Z" fill="#3169BD"/>
<path d="M617.582 315.735L640.074 293.984L698.089 325.074L646.31 367.245L617.582 315.735Z" fill="#3169BD"/>
<path d="M640.073 293.983L662.979 241.489L698.087 325.072L640.073 293.983Z" fill="#517BD1"/>
<path d="M711.547 276.1L698.085 325.071L662.977 241.488L711.547 276.1Z" fill="#3169BD"/>
<path d="M408.579 355.832L360.926 312.463L439.263 312.391L408.579 355.832Z" fill="#517BD1"/>
<path d="M420.224 287.028L439.264 312.393L360.927 312.465L420.224 287.028Z" fill="#3169BD"/>
<path d="M420.227 287.023L360.93 312.461L400.285 233.067L420.227 287.023Z" fill="#517BD1"/>
<path d="M350.692 265.423L400.256 233.612L360.92 312.457L350.692 265.423Z" fill="#3169BD"/>
<path d="M400.264 233.62L350.699 265.431L370.416 196.901L400.264 233.62Z" fill="#78BEEA"/>
<path d="M529.02 342.359L634.456 345.959L646.305 367.234L613.307 350.18L527.504 387.345L529.02 342.359Z" fill="#78BEEA"/>
<path d="M439.264 312.387L500.453 304.589L560.068 306.624L617.693 315.731L634.59 345.967L529.022 342.363L527.507 387.349L443.178 343.827L412.233 358.149L408.581 355.827L439.264 312.387Z" fill="#8ECCEE"/>
<path d="M617.581 315.728L640.074 293.977L570.364 277.866L617.581 315.728Z" fill="#517BD1"/>
<path d="M570.369 277.869L617.587 315.73L560.075 306.627L570.369 277.869Z" fill="#517BD1"/>
<path d="M640.074 293.977L662.98 241.484L619.097 270.743L570.364 277.867L640.074 293.977Z" fill="#949FE9"/>
<path d="M500.454 304.586L439.264 312.384L490.895 274.601L500.454 304.586Z" fill="#517BD1"/>
<path d="M439.262 312.385L490.893 274.603L420.222 287.02L439.262 312.385Z" fill="#517BD1"/>
<path d="M420.219 287.027L490.889 274.61L443.406 263.103L400.277 233.071L420.219 287.027Z" fill="#949FE9"/>
<path d="M395.246 179.616L505.748 221.285L513.843 257.811L490.896 274.603L443.413 263.096L399.645 233.591L370.417 196.893L395.246 179.616Z" fill="#8ECCEE"/>
<path d="M548.1 255.685L557.884 223.614L615.314 207.45L672.745 191.285L695.788 208.549L662.971 241.481L619.088 270.74L570.356 277.864L548.1 255.685Z" fill="#8ECCEE"/>
<path d="M548.109 255.695L570.365 277.875L560.071 306.633L549.226 296.377L548.109 255.695Z" fill="#918FEA"/>
<path d="M490.897 274.61L513.844 257.818L509.464 295.565L500.456 304.595L490.897 274.61Z" fill="#918FEA"/>
<path d="M513.84 257.819L548.105 255.694L549.222 296.375L560.067 306.631L500.452 304.596L509.46 295.567L513.84 257.819Z" fill="#8ECCEE"/>
<path d="M505.754 221.291L531.695 207.896L557.898 223.62L548.114 255.691L513.849 257.817L505.754 221.291Z" fill="#949FE9"/>
<path d="M395.242 179.617L370.413 196.894L362.311 86.7705L395.242 179.617Z" fill="#3169BD"/>
<path d="M362.293 87.3238L366.57 34.1942L451.202 142.536L395.243 179.621L362.293 87.3238Z" fill="#949FE9"/>
<path d="M451.2 142.533L469.501 207.966L395.237 179.62L451.2 142.533Z" fill="#78BEEA"/>
<path d="M451.202 142.535L484.447 133.784L502.792 161.322L469.514 207.97L451.202 142.535Z" fill="#918FEA"/>
<path d="M366.57 34.1953L416.985 69.4195L484.447 133.786L451.202 142.537L366.57 34.1953Z" fill="#3169BD"/>
<path d="M469.52 207.97L492.363 175.796L505.751 221.29L469.52 207.97Z" fill="#3169BD"/>
<path d="M531.685 207.896L505.727 221.298L492.354 175.794L531.685 207.896Z" fill="#8ECCEE"/>
<path d="M501.603 159.638L532.084 122.232L471.793 121.822L484.446 133.788L501.603 159.638Z" fill="#3169BD"/>
<path d="M501.609 159.629L532.089 122.223L531.69 207.89L501.609 159.629Z" fill="#949FE9"/>
<path d="M672.754 191.292L709.865 104.681L695.797 208.556L672.754 191.292Z" fill="#3169BD"/>
<path d="M711.875 44.8845L709.861 104.682L672.731 191.841L618.886 147.712L711.875 44.8845Z" fill="#949FE9"/>
<path d="M664.922 72.9403L711.879 44.8828L618.907 147.711L587.56 136.751L664.922 72.9403Z" fill="#3169BD"/>
<path d="M573.856 174.187L587.551 136.757L600.34 126.209L532.087 122.232L573.856 174.187Z" fill="#3169BD"/>
<path d="M564.323 161.773L531.685 207.893L532.084 122.226L564.323 161.773Z" fill="#78BEEA"/>
<path d="M573.856 174.184L531.688 207.896L564.345 161.227L573.856 174.184Z" fill="#3169BD"/>
<path d="M573.86 174.18L557.896 223.616L531.692 207.892L573.86 174.18Z" fill="#8ECCEE"/>
<path d="M572.486 177.98L594.919 213.348L557.893 223.618L572.486 177.98Z" fill="#3169BD"/>
<path d="M587.552 136.752L619.511 147.729L594.919 213.346L572.486 177.979L587.552 136.752Z" fill="#918FEA"/>
<path d="M618.891 147.715L672.75 191.419L594.92 213.354L618.891 147.715Z" fill="#78BEEA"/>
<path d="M507.026 293.957L550.495 295.441L557.725 302.279L543.712 312.236L530.117 328.249L525.77 328.101L515.165 310.712L499.334 300.835L507.026 293.957Z" fill="#263254"/>
<path d="M525.768 328.093L530.115 328.242L530.44 337.041L537.197 339.468L555.076 343.923L571.314 341.731L592.398 324.876L602.094 332.347L592.102 333.653L581.102 346.459L565.374 351.964L549.757 354.177L530.163 345.27L525.213 344.551L506.909 352.714L483.478 346.971L471.298 339.416L462.279 330.32L453.622 328.926L464.401 322.703L493.598 341.825L510.365 342.397L525.472 336.871L525.768 328.093Z" fill="#263254"/>
<path d="M591.197 231.474L590.514 251.772L579.938 251.96L591.197 231.474Z" fill="#918FEA"/>
<path d="M573.111 251.723L584.371 231.237L606.493 220.458L623.204 222.676L634.855 227.468L664.164 243.298L634.356 242.28L623.774 261.142L613.032 266.268L601.817 266.983L615.701 260.867L628.767 242.089L620.388 232.466L606.29 226.493L591.201 231.47L577.292 256.809L601.817 266.983L577.015 265.038L572.169 279.702L564.957 272.316L573.111 251.723Z" fill="#263254"/>
<path d="M591.198 231.466L606.286 226.489L611.014 233.791L610.367 252.992L601.378 261.473L590.514 251.765L591.198 231.466Z" fill="#263254"/>
<path d="M579.937 251.961L590.512 251.772L601.376 261.48L610.365 252.999L611.012 233.798L606.284 226.497L620.382 232.47L628.762 242.093L616.316 260.892L601.812 266.987L577.286 256.813L579.937 251.961Z" fill="#949FE9"/>
<path d="M608.608 231.516L613.011 230.018L616.607 233.986L616.422 239.472L610.212 239.26L607.163 237.508L606.05 233.625L608.608 231.516Z" fill="#8ECCEE"/>
<path d="M491.137 248.93L481.283 227.722L459.937 215.46L443.114 216.533L431.168 220.519L400.862 234.314L430.669 235.332L439.958 254.872L450.33 260.718L461.471 262.197L448.031 255.147L436.258 235.522L445.266 226.493L459.733 221.494L474.452 227.489L486.624 253.719L461.471 262.197L486.347 261.948L490.195 276.908L497.887 270.031L491.137 248.93Z" fill="#263254"/>
<path d="M474.456 227.486L459.737 221.491L454.529 228.454L453.882 247.655L462.28 256.729L473.772 247.784L474.456 227.486Z" fill="#263254"/>
<path d="M484.301 248.697L474.446 227.49L473.763 247.788L462.271 256.733L453.872 247.659L454.519 228.458L459.727 221.495L445.26 226.494L436.252 235.523L447.404 255.127L461.465 262.198L486.618 253.72L484.301 248.697Z" fill="#949FE9"/>
<path d="M475.286 239.598L470.884 241.095L467.287 237.128L467.472 231.642L473.682 231.854L476.732 233.605L477.844 237.488L475.286 239.598Z" fill="#8ECCEE"/>
<path d="M760.535 263.439L735.702 268.769L700.466 271.231L702.98 264.359L760.535 263.439Z" fill="#B8C2E7"/>
<path d="M758.726 312.174L723.008 309.702L682.171 305.578L688.802 298.835L731.619 304.928L758.726 312.174Z" fill="#B8C2E7"/>
<path d="M455.555 286.948L314.152 263.64L329.521 274.822L455.555 286.948Z" fill="#B8C2E7"/>
<path d="M455.267 303.395L289.437 309.346L321.089 313.55L384.942 311.064L455.267 303.395Z" fill="#B8C2E7"/>
</svg>
