<svg width="1776" height="1105" viewBox="0 0 1776 1105" fill="none" xmlns="http://www.w3.org/2000/svg">
<path d="M53.8062 607.244L385.393 483L295.877 813.215L468.126 1055.22L125.733 1104.72L192.916 933.055L53.8062 607.244Z" fill="#29395F"/>
<path d="M1716.33 368.244L1384.74 244L1474.26 574.215L1302.01 816.218L1644.4 865.722L1577.22 694.055L1716.33 368.244Z" fill="#29395F"/>
<path d="M241.474 250.599L753.488 110.933L940.974 97.7017L1030.11 134.211L1248.26 82.9486L1507.74 193.261L1440.96 986.823L1151.21 1003.05L620.709 872.834L201.496 887L251.347 599.531L241.474 250.599Z" fill="#2F477D"/>
<path d="M507.062 697.59L550.562 750.59H462.062L507.062 697.59Z" fill="#918FEA"/>
<path d="M506.062 699.09L550.562 647.59H462.062L506.062 699.09Z" fill="#918FEA"/>
<path d="M507.07 697.59L550.57 647.59V750.59L507.07 697.59Z" fill="#8ECCEE"/>
<path d="M506.07 699.09L462.07 647.59V750.59L506.07 699.09Z" fill="#949FE9"/>
<path d="M462.062 647.59L551.562 568.09L550.565 647.59H462.062Z" fill="#949FE9"/>
<path d="M600.57 647.09L551.57 568.09L550.572 647.09H600.57Z" fill="#918FEA"/>
<path d="M551.57 568.09L600.57 647.09L601.57 568.09H551.57Z" fill="#517BD1"/>
<path d="M366.063 570.089L462.141 570.029L462.134 400.043L551.638 568.015L462.141 647.526L366.063 570.089Z" fill="#517BD1"/>
<path d="M462.069 400.085L551.666 252.085L551.566 568.089L462.069 400.085Z" fill="#918FEA"/>
<path d="M462.062 400.09L551.562 252.09L462.062 251.09V400.09Z" fill="#3169BD"/>
<path d="M387.061 373.089L462.039 251.085L462.056 396.584L387.061 373.089Z" fill="#8ECCEE"/>
<path d="M376.062 471.09L462.062 396.59L387.062 373.09L376.062 471.09Z" fill="#517BD1"/>
<path d="M387.062 373.09L280.063 561.59L376.063 471.09L387.062 373.09Z" fill="#8ECCEE"/>
<path d="M374.062 472.59L366.062 570.09L280.062 561.59L374.062 472.59Z" fill="#949FE9"/>
<path d="M366.062 570.09L462.562 647.59H293.562L366.062 570.09Z" fill="#918FEA"/>
<path d="M366.062 570.09L293.562 647.59L280.062 561.59L366.062 570.09Z" fill="#517BD1"/>
<path d="M374.062 472.59L462.062 396.59L366.062 570.09L374.062 472.59Z" fill="#26378D"/>
<path d="M1394.65 690.09L1438.15 743.09H1349.65L1394.65 690.09Z" fill="#918FEA"/>
<path d="M1393.65 691.59L1438.15 640.09H1349.65L1393.65 691.59Z" fill="#918FEA"/>
<path d="M1394.65 690.09L1438.15 640.09V743.09L1394.65 690.09Z" fill="#8ECCEE"/>
<path d="M1393.65 691.59L1349.65 640.09V743.09L1393.65 691.59Z" fill="#949FE9"/>
<path d="M1349.65 640.09L1439.15 560.59L1438.15 640.09H1349.65Z" fill="#949FE9"/>
<path d="M1488.15 639.59L1439.15 560.59L1438.15 639.59H1488.15Z" fill="#918FEA"/>
<path d="M1439.15 560.59L1488.15 639.59L1489.15 560.59H1439.15Z" fill="#517BD1"/>
<path d="M1253.65 562.589L1349.73 562.529L1349.72 392.543L1439.22 560.515L1349.73 640.026L1253.65 562.589Z" fill="#517BD1"/>
<path d="M1349.65 392.585L1439.24 244.585L1439.14 560.589L1349.65 392.585Z" fill="#918FEA"/>
<path d="M1349.65 392.594L1439.15 244.594L1349.65 243.594V392.594Z" fill="#3169BD"/>
<path d="M1274.65 365.593L1349.62 243.588L1349.64 389.088L1274.65 365.593Z" fill="#8ECCEE"/>
<path d="M1263.65 463.594L1349.65 389.094L1274.65 365.594L1263.65 463.594Z" fill="#517BD1"/>
<path d="M1274.65 365.594L1167.65 554.094L1263.65 463.594L1274.65 365.594Z" fill="#8ECCEE"/>
<path d="M1261.65 465.094L1253.65 562.594L1167.65 554.094L1261.65 465.094Z" fill="#949FE9"/>
<path d="M1253.65 562.59L1350.15 640.09H1181.15L1253.65 562.59Z" fill="#918FEA"/>
<path d="M1253.65 562.59L1181.15 640.09L1167.65 554.09L1253.65 562.59Z" fill="#517BD1"/>
<path d="M1261.65 465.09L1349.65 389.09L1253.65 562.59L1261.65 465.09Z" fill="#26378D"/>
<path d="M894.578 715.59L939.611 756.84H849.545L894.578 715.59Z" fill="#7674CE"/>
<path d="M939.567 757.075L894.568 715.577L959.575 700.59L939.567 757.075Z" fill="#949FE9"/>
<path d="M959.578 700.59L1011.08 714.59L939.078 756.59L959.578 700.59Z" fill="#7674CE"/>
<path d="M1056.08 635.59L1011.08 714.59L959.578 700.59L1056.08 635.59Z" fill="#949FE9"/>
<path d="M1056.08 635.602L991.586 679.088L996.077 601.106L984.574 542.09L1056.08 635.602Z" fill="#517BD1"/>
<path d="M984.58 542.09L1080.07 486.591L1056.09 635.582L984.58 542.09Z" fill="#918FEA"/>
<path d="M849.578 757.09L895.078 715.59L826.578 700.09L849.578 757.09Z" fill="#949FE9"/>
<path d="M826.578 700.09L849.578 757.09L777.078 714.09L826.578 700.09Z" fill="#7674CE"/>
<path d="M777.078 714.09L826.578 700.09L735.078 639.09L777.078 714.09Z" fill="#949FE9"/>
<path d="M735.077 639.09L803.078 543.09L793.578 604.59L798.062 681.1L735.077 639.09Z" fill="#517BD1"/>
<path d="M803.061 543.095L735.059 639.593L709.574 488.591L803.061 543.095Z" fill="#918FEA"/>
<path d="M734.585 339.081L849.579 341.589L865.078 453.09L803.115 543.144L709.561 488.596L734.585 339.081Z" fill="#3169BD"/>
<path d="M1055.58 339.59L1080.09 487.075L984.578 542.09L923.089 453.083L940.079 343.589L1055.58 339.59Z" fill="#3169BD"/>
<path d="M793.578 604.59L803.078 542.09L865.078 453.09L848.578 340.59L807.578 246.59L895.578 230.09L981.078 246.59L940.578 343.59L923.578 453.09L984.578 542.09L996.078 601.09L991.578 679.09L959.578 700.59L894.078 715.59L826.578 700.59L798.078 681.09L793.578 604.59Z" fill="#8ECCEE"/>
<path d="M981.078 246.59L1055.58 339.59L940.578 343.59L981.078 246.59Z" fill="#517BD1"/>
<path d="M981.08 246.565L1056.58 170.566L1055.58 339.589L981.08 246.565Z" fill="#918FEA"/>
<path d="M1093.08 298.884L1055.61 339.444L1056.57 170.589L1093.08 298.884Z" fill="#26378D"/>
<path d="M1093.06 299.091L1056.56 170.591L1196.08 244.09L1093.06 299.091Z" fill="#3169BD"/>
<path d="M1093.06 299.076L1196.06 244.076L1196.08 344.59L1093.06 299.076Z" fill="#8ECCEE"/>
<path d="M1135.58 440.08L1093.06 299.076L1196.06 344.576L1135.58 440.08Z" fill="#3169BD"/>
<path d="M849.59 341.582L734.595 339.098L807.578 246.59L849.59 341.582Z" fill="#517BD1"/>
<path d="M807.576 246.588L734.6 339.088L734.604 172.588L807.576 246.588Z" fill="#918FEA"/>
<path d="M697.082 299.09L735.082 337.079L735.081 172.091L697.082 299.09Z" fill="#26378D"/>
<path d="M697.078 299.59L735.078 172.59L593.078 244.59L697.078 299.59Z" fill="#3169BD"/>
<path d="M698.078 299.609L594.578 343.59L593.578 244.59L698.078 299.609Z" fill="#8ECCEE"/>
<path d="M654.078 440.09L698.078 299.59L594.578 343.59L654.078 440.09Z" fill="#3169BD"/>
<path d="M1010.99 417.106L1022.01 444.255L1009.61 460.298L983.43 464L960.008 447.957V419.574L987.563 406L1010.99 417.106Z" fill="#263254"/>
<path d="M783.03 417.106L772.008 444.255L784.408 460.298L810.586 464L834.008 447.957V419.574L806.452 406L783.03 417.106Z" fill="#263254"/>
<path d="M987.808 419.638L991.008 428.532L987.408 433.787L979.808 435L973.008 429.745V420.447L981.008 416L987.808 419.638Z" fill="#8ECCEE"/>
<path d="M806.208 419.638L803.008 428.532L806.608 433.787L814.208 435L821.008 429.745V420.447L813.008 416L806.208 419.638Z" fill="#8ECCEE"/>
<path d="M989.508 395L1029.01 405.5L1034.01 401.5L1033.51 393.5L999.508 383L971.008 359L965.508 361L962.008 368.5L989.508 395Z" fill="#263254"/>
<path d="M806.508 395L767.008 405.5L762.008 401.5L762.508 393.5L796.508 383L825.008 359L830.508 361L834.008 368.5L806.508 395Z" fill="#263254"/>
<path d="M896.004 651.5L921.004 659L950.504 679L954.504 676.5L955.004 670L937.504 650L903.504 638L902.508 615L922.008 602.5L915.008 599.5L910.008 594L914.008 581L920.508 580.5L925.508 582.5L928.008 590.5H937.008L943.008 561.5L919.508 546H872.008L849.008 561.5L853.008 588.5L861.508 591.5L867.008 582.5L874.508 581L880.008 584.5L882.008 594L878.008 599L869.008 602.5L888.508 615L889.008 638L856.008 649L836.008 671.5L837.508 676L840.508 677.5L864.008 660.5L896.004 651.5Z" fill="#263254"/>
<path d="M1702.4 657.825L1727.13 693.135L1672.6 728.233L1646.33 693.728L1702.4 657.825Z" fill="#8FCFF2"/>
<path d="M1659.47 710.981L1672.6 728.233L1676.78 755.458L1656.93 764.191L1631.58 752.04L1627.7 732.778L1659.47 710.981Z" fill="#8FCFF2"/>
<path d="M1604.29 691.991L1631.79 680.375L1646.33 693.728L1659.47 710.981L1627.7 732.778L1608.53 719.234L1604.29 691.991Z" fill="#8FCFF2"/>
<path d="M1760.1 663.319L1761.39 694.547L1744.55 700.894L1727.17 693.81L1714.77 675.48L1742.62 653.047L1760.1 663.319Z" fill="#8FCFF2"/>
<path d="M1735.43 630.447L1742.62 653.047L1714.77 675.48L1702.4 657.825L1701.56 637.028L1716.56 624.911L1735.43 630.447Z" fill="#8FCFF2"/>
<path d="M77.3468 397.136L86.9296 402.903L88.6914 415.553L101.932 428.351L99.3509 441.136L90.6695 446.832L77.0908 444.091L66.8184 437.967L59.3683 440.079L45.6242 437.738L40.7271 429.3L42.2513 416.302L55.1975 410.02L63.6943 401.466L77.3468 397.136Z" fill="#8FCFF2"/>
<path d="M55.7873 368.121L67.7444 357.518L76.4605 365.063L77.1728 384.588L74.3427 391.899L63.3794 393.808L52.687 383.477L55.7873 368.121Z" fill="#8FCFF2"/>
<path d="M95.1677 365.871L105.667 372.547L107.895 382.471L104.391 395.214L92.6479 400.148L84.509 395.612L81.4513 386.027L88.2555 370.768L95.1677 365.871Z" fill="#8FCFF2"/>
<path d="M39.1112 382.401L48.5396 388.932L53.1109 401.499L44.7378 407.763L32.9171 405.955L31.8976 398.011L32.8492 389.525L39.1112 382.401Z" fill="#8FCFF2"/>
<path d="M107.224 397.96L121.762 399.304L119.461 410.7L113.471 417.735L107.367 421.565L100.293 420.137L95.4069 412.063L98.5596 403.153L107.224 397.96Z" fill="#8FCFF2"/>
<path d="M231 944.749L250.725 991.709L236.277 1026L178.544 980.884L231 944.749Z" fill="#2E539D"/>
<path d="M1556.01 96.7492L1575.73 143.709L1561.29 178L1503.55 132.884L1556.01 96.7492Z" fill="#2E539D"/>
<path d="M1675.86 310L1713.95 328.935L1674.62 384.276L1646.22 369.611L1675.86 310Z" fill="#6F91DB"/>
<path d="M29.8516 691L67.9401 709.935L28.6104 765.276L0.216262 750.611L29.8516 691Z" fill="#6F91DB"/>
</svg>
