<svg width="1533" height="1169" viewBox="0 0 1533 1169" fill="none" xmlns="http://www.w3.org/2000/svg">
<path d="M34.5703 304.557L534.984 84.587L721.413 49.6712L813.646 84.587L1027.55 0.789062L1296.4 107.282V1069.21L1007.92 1118.1L466.3 1015.09H103.255L73.8185 723.547L34.5703 304.557Z" fill="#2F477D"/>
<path d="M1295.97 1077.19L1008.45 1118.42L771.478 1073.51L1295.97 1077.19Z" fill="#2F4373"/>
<path d="M1285.97 990.249L1334.38 1074.98L1217.5 1089.15L1285.97 990.249Z" fill="#918FEA"/>
<path d="M1135.01 700.52L1285.97 990.249L1217.5 1089.15L1007 1118.65L1135.01 700.52Z" fill="#517BD1"/>
<path d="M1135.01 700.52L1007 1118.65L884 1095.15L960.241 827.163L1135.01 700.52Z" fill="#918FEA"/>
<path d="M742.003 867.251L910.155 1013.94L884 1095.15L792.5 1077.65L742.003 867.251Z" fill="#3169BD"/>
<path d="M742.003 867.251L792.5 1077.65L724 1064.65L735.5 972.152L742.003 867.251Z" fill="#918FEA"/>
<path d="M1422.97 948.339L1392.61 1034.89L1334.38 1074.98L1308.35 1029.43L1422.97 948.339Z" fill="#3169BD"/>
<path d="M1459.07 887.295L1477.12 968.383L1392.61 1034.89L1422.97 948.339L1459.07 887.295Z" fill="#517BD1"/>
<path d="M1469.74 860.873L1532.91 801.652L1515.68 891.851L1477.12 968.383L1459.07 887.295L1469.74 860.873Z" fill="#918FEA"/>
<path d="M1515.68 777.052L1532.91 801.652L1469.74 860.873L1482.04 746.075L1515.68 777.052Z" fill="#3169BD"/>
<path d="M1484.5 644.942L1524.71 725.118L1532.91 801.652L1515.68 777.052L1482.04 746.075L1440.2 670.453L1484.5 644.942Z" fill="#517BD1"/>
<path d="M1417.23 604.859L1458.25 616.703L1484.5 644.942L1440.2 670.453L1397.54 614.881L1417.23 604.859Z" fill="#8ECCEE"/>
<path d="M1013.57 530.17L1135.01 700.52L960.241 827.163L1013.57 530.17Z" fill="#517BD1"/>
<path d="M1013.57 530.17L960.241 827.163L866.716 720.589L1013.57 530.17Z" fill="#3169BD"/>
<path d="M960.241 827.163L910.155 1013.94L742.003 867.251L746.112 799.855L866.716 720.589L960.241 827.163Z" fill="#517BD1"/>
<path d="M755.963 644.057L866.716 720.589L746.112 799.855L755.963 644.057Z" fill="#3169BD"/>
<path d="M755.963 644.057L910.155 603.058L1013.57 530.17L866.716 720.589L755.963 644.057Z" fill="#26378D"/>
<path d="M874.927 519.237L997.992 419.927L970.097 377.105L921.692 359.794L865.081 364.35L847.852 441.794L777.295 432.682L806.01 337.017L915.949 288.729L952.048 303.306L1016.86 413.549L1013.57 530.17L910.155 603.058L874.927 519.237Z" fill="#517BD1"/>
<path d="M847.852 441.794L835.526 512.859L739.535 496.459L777.295 432.682L847.852 441.794Z" fill="#8ECCEE"/>
<path d="M997.992 419.927L874.927 519.237L847.852 441.794L865.081 364.35L921.692 359.794L970.097 377.105L997.992 419.927Z" fill="#3169BD"/>
<path d="M921.692 280.542L915.949 288.729L806.01 337.017L698.494 388.963L801.869 269.609L921.692 280.542Z" fill="#8ECCEE"/>
<path d="M760.027 246.832L781.358 235.898L801.869 269.609L698.494 388.963L696.033 367.097L760.027 246.832Z" fill="#3169BD"/>
<path d="M781.358 235.898L760.027 246.832L746.9 219.5L731.312 198.545H746.9L781.358 235.898Z" fill="#5074C0"/>
<path d="M709.925 166.656L731.312 198.545L746.9 219.5L760.027 246.832L696.033 367.097L682.017 288.729L709.925 166.656Z" fill="#918FEA"/>
<path d="M709.925 166.656L682.017 288.729L670.565 343.409L602.469 260.499L709.925 166.656Z" fill="#517BD1"/>
<path d="M1028.28 192.16L1124.27 306.047L1038.12 380.757L1015.97 207.649L952.048 303.306L915.949 288.729L921.692 280.542L1013.51 182.138L1028.28 192.16Z" fill="#3169BD"/>
<path d="M1032.17 334.291L1016.86 413.549L952.048 303.306L1015.97 207.649L1032.17 334.291Z" fill="#918FEA"/>
<path d="M732.098 512.859L737.02 532.91L759.172 554.777L768.616 573.917L752.609 585.754H729.636L708.305 554.777L698.46 559.332L713.228 588.487L739.535 598.509L771.479 591.221L791.169 608.531L816.603 615.82L847.852 605.798L871.572 581.199L861.727 572.088L842.036 598.509L805.117 603.058L782.563 583.028L780.504 564.799L828.909 542.932L835.526 512.859L847.852 441.794L874.927 519.237L910.155 603.058L801.014 632.078L755.963 627.664L698.46 593.954L683.692 536.555L690.255 479.156L698.494 388.963L806.01 337.017L777.295 432.682L739.535 496.459L732.098 512.859Z" fill="#918FEA"/>
<path d="M835.526 512.859L828.909 542.932L780.504 564.799L759.172 554.777L737.02 532.91L732.098 512.859L739.535 496.459L835.526 512.859Z" fill="#263254"/>
<path d="M759.172 554.777L780.504 564.799L782.563 583.028L768.616 573.917L759.172 554.777Z" fill="#263254"/>
<path d="M768.616 573.917L782.563 583.028L805.117 603.058L791.169 608.531L771.479 591.221L768.616 573.917Z" fill="#263254"/>
<path d="M698.46 559.332L708.305 554.777L729.636 585.754L713.228 588.487L698.46 559.332Z" fill="#263254"/>
<path d="M713.228 588.487L729.636 585.754H752.609L768.616 573.917L771.479 591.221L739.535 598.509L726.382 593.498L713.228 588.487Z" fill="#263254"/>
<path d="M805.117 603.058L842.036 598.509L847.852 605.798L871.572 581.199L861.727 572.088L842.036 598.509L847.852 605.798L835.526 609.751L816.603 615.82L791.169 608.531L805.117 603.058Z" fill="#263254"/>
<path d="M924.911 409.923L931.474 429.967L924.09 441.811L908.502 444.544L894.555 432.7V411.745L910.963 401.723L924.911 409.923Z" fill="#263254"/>
<path d="M762.458 388.055L769.021 408.099L761.637 419.944L746.049 422.677L732.102 410.833V389.878L748.51 379.855L762.458 388.055Z" fill="#263254"/>
<path d="M539.859 481.054L546.796 501.602L538.992 513.744L522.515 516.546L507.773 504.404V482.922L525.117 472.648L539.859 481.054Z" fill="#2E457A"/>
<path d="M814.148 86.0934L1029.78 0L1299.11 107.419V160.339L814.148 86.0934Z" fill="#2F4373"/>
<path d="M35.3594 304.879L218.604 222.734L47.9969 440.732L35.3594 304.879Z" fill="#2F4373"/>
<path d="M570.875 653.993L686.983 621.609L750.17 634.247L736.743 831.709L646.7 843.557L579.563 789.057L570.875 653.993Z" fill="#2F4373"/>
<path d="M1015.56 466.011L1149.84 419.41L1085.07 620.821L1013.19 530.779L1015.56 466.011Z" fill="#2F4373"/>
<path d="M129.35 606.601L263.624 560L198.857 761.411L126.98 671.369L129.35 606.601Z" fill="#2F4373"/>
<path d="M908.113 83.0166L932.391 117.341L886.674 145.989L861.101 112.303L908.113 83.0166Z" fill="#26378D"/>
<path d="M873.887 129.146L886.674 145.989L892.245 171.423L875.324 178.118L852.108 165.143L847.348 147.083L873.887 129.146Z" fill="#26378D"/>
<path d="M823.86 107.792L847.341 98.964L861.101 112.303L873.887 129.146L847.348 147.083L829.488 133.248L823.86 107.792Z" fill="#26378D"/>
<path d="M959.434 92.0795L962.726 121.011L948.299 125.71L932.466 117.966L920.252 100.179L943.292 81.3837L959.434 92.0795Z" fill="#26378D"/>
<path d="M935.381 60.0129L943.292 81.3837L920.252 100.179L908.113 83.0166L905.937 63.7502L918.342 53.5952L935.381 60.0129Z" fill="#26378D"/>
<path d="M377.751 184.845L388.016 191.371L389.714 205.999L403.819 220.612L400.82 235.468L391.341 242.21L376.707 239.255L365.702 232.327L357.613 234.896L342.793 232.408L337.637 222.712L339.497 207.625L353.595 200.136L362.92 190.086L377.751 184.845Z" fill="#8FCFF2"/>
<path d="M354.917 151.58L368.017 139.099L377.316 147.699L377.768 170.311L374.589 178.829L362.705 181.219L351.315 169.424L354.917 151.58Z" fill="#8FCFF2"/>
<path d="M397.525 148.329L408.767 155.893L411.013 167.355L407.017 182.178L394.241 188.086L385.517 182.963L382.368 171.907L389.973 154.115L397.525 148.329Z" fill="#8FCFF2"/>
<path d="M336.655 168.399L346.741 175.813L351.478 190.299L342.324 197.694L329.574 195.792L328.602 186.605L329.769 176.757L336.655 168.399Z" fill="#8FCFF2"/>
<path d="M410.036 185.316L425.73 186.636L423.057 199.877L416.466 208.126L409.804 212.663L402.18 211.124L397.03 201.849L400.584 191.475L410.036 185.316Z" fill="#8FCFF2"/>
<rect x="1183.8" y="187.074" width="54.5463" height="57.0814" transform="rotate(-48.6615 1183.8 187.074)" fill="#94CEF2"/>
<path d="M1181.84 410.076L1224.49 514.337L1192.11 590.951L1065.73 491.43L1181.84 410.076Z" fill="#4C71C3"/>
<path d="M579.423 750.635L614.5 1042.15L520.5 1026.15L579.423 750.635Z" fill="#78BEEA"/>
<path d="M579.423 750.635L520.5 1026.15L426.5 1016.15L406.734 922.486L579.423 750.635Z" fill="#918FEA"/>
<path d="M406.734 922.486L426.5 1016.15H332.02L406.734 922.486Z" fill="#949FE9"/>
<path d="M347.187 896.335L332.02 1016.15H268.5L241.044 798.269L347.187 896.335Z" fill="#517BD1"/>
<path d="M241.044 798.269L268.5 1016.15H138L241.044 798.269Z" fill="#949FE9"/>
<path d="M374.142 745.965L406.734 922.486L332.02 1016.15L347.187 896.335L374.142 745.965Z" fill="#8ECCEE"/>
<path d="M579.423 750.635L406.734 922.486L374.142 745.965L579.423 750.635Z" fill="#78BEEA"/>
<path d="M374.142 745.965L347.187 896.335L241.044 798.269L345.5 578.779L374.142 745.965Z" fill="#78BEEA"/>
<path d="M470.176 669.325L374.142 745.965L345.5 578.779L470.176 669.325Z" fill="#517BD1"/>
<path d="M470.176 669.325L579.423 750.635L374.142 745.965L470.176 669.325Z" fill="#8ECCEE"/>
<path d="M470.176 669.325L570.422 596.438L579.423 750.635L470.176 669.325Z" fill="#78BEEA"/>
<path d="M345.5 578.779L385.093 573.051L496.29 587.995L570.422 553.438V596.441L470.176 669.325L345.5 578.779Z" fill="#3169BD"/>
<path d="M69.1348 918.624L108.728 957.851L151.603 988.673L138 1016.15L107.043 1003.62L74.1893 988.673L49.7596 969.993L31.2267 947.578L69.1348 918.624Z" fill="#3169BD"/>
<path d="M3.44201 872.86H49.7596L69.1348 918.624L31.2267 947.578L11.0236 905.548L3.44201 872.86Z" fill="#517BD1"/>
<path d="M30.3283 733.698L60.6548 769.189L49.7596 821.492V872.86H3.44201L0 827.095L8.42403 781.331L30.3283 733.698Z" fill="#949FE9"/>
<path d="M99.4036 681.394L106.985 684.196L108.67 690.734L78.3435 738.367L60.6548 769.189L30.3283 733.698L44.6474 711.282L64.0226 694.47L81.7131 686.064L99.4036 681.394Z" fill="#8ECCEE"/>
<path d="M543.35 566.057L537.453 550.412L552.616 531.733L530.714 542.006H509.654V526.129L528.187 490.637L518.92 480.363L491.963 484.099L488.594 385.096L429.625 357.077V394.436L438.049 429.928L434.68 440.202L429.625 436.466L419.517 440.202L417.832 425.258L411.935 423.39L400.984 428.06L390.033 440.202V454.212L398.457 465.419L419.517 467.287L434.68 454.212L438.049 461.683L429.625 472.891L410.25 480.363L349.597 446.74L298.211 426.192L388.348 330.925L443.946 325.321L496.29 318.783L537.453 343.067L598.106 391.634V450.476L595.579 497.175L592.209 526.129L587.155 536.403L570.422 553.438L543.35 566.057Z" fill="#8ECCEE"/>
<path d="M385.093 573.051L345.5 578.779L298.211 426.192L349.597 446.74L410.25 480.363L429.625 472.891L438.049 461.683L434.68 454.212V440.202L438.049 429.928L429.625 394.436V357.077L488.594 385.096L491.963 484.099L470.903 490.637L465.849 499.977L472.588 513.053L491.963 526.129L497.86 536.403L491.963 550.412L474.273 555.082L468.376 552.747L462.479 550.412L454.055 546.676L451.528 555.082L472.588 566.057L487.751 562.554L509.654 546.676L518.92 555.082L537.453 550.412L543.35 566.057L496.29 587.995L385.093 573.051Z" fill="#78BEEA"/>
<path d="M600.633 228.161L598.106 391.634L537.453 343.067L600.633 228.161Z" fill="#949FE9"/>
<path d="M600.633 228.152L537.453 343.067L496.29 318.783L600.633 228.152Z" fill="#517BD1"/>
<path d="M273.781 249.598L363.604 357.077L298.211 426.192L273.781 249.598Z" fill="#949FE9"/>
<path d="M273.781 249.615L388.348 330.925L363.604 357.077L273.781 249.615Z" fill="#78BEEA"/>
<path d="M470.903 490.637L491.963 484.099L518.92 480.363L528.187 490.637L509.654 526.129V542.006L497.86 536.403L491.963 526.129L472.588 513.053L465.849 499.977L470.903 490.637Z" fill="#2E457A"/>
<path d="M474.273 555.082L491.963 550.412L497.86 536.403L509.654 542.006V546.676L487.751 562.554L472.588 566.057L451.528 555.082L454.055 546.676L474.273 555.082Z" fill="#2E457A"/>
<path d="M552.616 531.733L537.453 550.412L518.92 555.082L509.654 546.676V542.006H530.714L552.616 531.733Z" fill="#2E457A"/>
<path d="M390.033 454.212V440.202L400.984 428.06L411.935 423.39L417.832 425.258L419.517 440.202L429.625 436.466L434.68 440.202V454.212L419.517 467.287L417.832 467.138L398.457 465.419L390.033 454.212Z" fill="#2E457A"/>
<path d="M548.403 417.754L555.143 438.301L547.561 450.443L531.555 453.245L517.234 441.103V419.622L534.082 409.348L548.403 417.754Z" fill="#2E457A"/>
<path d="M639.379 443.797L622.534 454.055L597.26 463.411L597.262 455.922L639.379 443.797Z" fill="#B8C2E7"/>
<path d="M651.158 493.801L624.202 498.224L593.033 501.96L596.099 493.801L629.256 491.686L651.158 493.801Z" fill="#B8C2E7"/>
<path d="M421.198 527.027L310.843 530.763L325.164 539.169L421.198 527.027Z" fill="#B8C2E7"/>
<path d="M425.41 543.839L304.947 582.133L329.376 580.265L375.708 565.321L425.41 543.839Z" fill="#B8C2E7"/>
</svg>
