<svg width="2174" height="1219" viewBox="0 0 2174 1219" fill="none" xmlns="http://www.w3.org/2000/svg">
<path d="M1252 143L1470.5 92L1731 202.5L1725.5 254L1252 143Z" fill="#2F4373"/>
<path d="M297 283.453L109.8 59.3062L14.4977 159.255L297 283.453Z" fill="#8FCDF0"/>
<path d="M1846 235.453L2033.2 11.3062L2128.5 111.255L1846 235.453Z" fill="#8FCDF0"/>
<path d="M350.453 844.082L109.804 1141.53L19.0149 1035.39L350.453 844.082Z" fill="#8FCDF0"/>
<path d="M1823 861.379L2063.65 1158.82L2154.44 1052.69L1823 861.379Z" fill="#8FCDF0"/>
<path d="M678.439 229.634L683.177 47.0091L809.207 8.95119L787.49 113.423L678.439 229.634Z" fill="#9DADE2"/>
<path d="M516.84 96.3972L501.738 42.3027L627.768 4.24476L606.837 136.245L516.84 96.3972Z" fill="#2F4B8D"/>
<path d="M1711.44 990.245L1716.18 1172.87L1842.21 1210.93L1820.49 1106.46L1711.44 990.245Z" fill="#9DADE2"/>
<path d="M1549.84 1123.48L1534.74 1177.58L1660.77 1215.63L1639.84 1083.63L1549.84 1123.48Z" fill="#2F4B8D"/>
</svg>
