<svg width="621" height="1151" viewBox="0 0 621 1151" fill="none" xmlns="http://www.w3.org/2000/svg">
<rect x="366" y="33.9258" width="34.5296" height="36.1344" transform="rotate(-48.6615 366 33.9258)" fill="#355BAC"/>
<path d="M165.5 87.5L250.5 58L209.5 185.5L164 128.5L165.5 87.5Z" fill="#2F4373"/>
<path d="M374.948 129.498L361.094 161.934L408.939 179.981L424.108 147.909L374.948 129.498Z" fill="#8C87E8"/>
<path d="M416.524 163.945L408.939 179.981L409.855 202.317L426.653 205.681L444.53 191.499L444.603 175.529L416.524 163.945Z" fill="#8C87E8"/>
<path d="M456.587 138.989L433.387 134.712L424.108 147.909L416.524 163.945L444.603 175.529L457.458 161.351L456.587 138.989Z" fill="#8C87E8"/>
<path d="M330.852 144.206L334.637 169.198L348.723 171.21L361.172 162.475L368.021 145.716L342.891 132.926L330.852 144.206Z" fill="#8C87E8"/>
<path d="M345.031 113.716L342.891 132.926L368.021 145.716L374.948 129.498L372.413 112.858L358.875 105.941L345.031 113.716Z" fill="#8C87E8"/>
<path d="M64.9062 0L84.5 26L64.9063 67.5L38.1963 53.7269L64.9062 0Z" fill="#90CCEB"/>
<path d="M402.811 1029.8H461.953L573.046 1055.24L371.641 1078.43L402.811 1029.8Z" fill="#93CEF0"/>
<path d="M446.768 795.637L501.914 775.438L593.826 826.31L573.845 1056.73L403.609 924.315L446.768 795.637Z" fill="#93CEF0"/>
<path d="M362.047 441.773L521.093 646.013L593.823 826.312L515.499 770.202L434.777 777.684L403.607 641.524L411.599 762.721L325.282 1081.42H234.17L248.556 1037.28L276.529 1031.3L310.896 791.898L229.375 646.013L297.309 570.452L362.047 441.773Z" fill="#93CEF0"/>
<path d="M342.068 349.005L336.473 251L356.454 345.264L362.848 444.017L271.736 429.803L266.941 455.239L248.558 467.958L204.601 449.254L176.628 464.217L163.84 449.254L170.234 424.566L144.659 414.092V379.678L153.45 355.738L190.215 323.569L135.867 266.711L214.192 313.095H271.736L336.473 251L286.921 318.332L342.068 349.005Z" fill="#93CEF0"/>
<path d="M411.605 762.72L403.613 641.523L434.782 777.683L515.504 770.202L593.829 826.311L501.918 775.439L446.771 795.638L403.613 924.316L573.848 1056.74L461.956 1029.8H402.813L388.427 1052.25H330.883L411.605 762.72Z" fill="#7372B3"/>
<path d="M223.78 1008.86H279.761L276.529 1032.05L248.556 1037.28L244.56 1050.75L195.008 1048.51L223.78 1008.86Z" fill="#7372B3"/>
<path d="M255.5 779.5L302.107 853.992L279.729 1008.86L204.602 889.903L255.5 779.5Z" fill="#7372B3"/>
<path d="M229.382 646.011L310.903 791.896L302.112 853.991L205.405 699.128L160.648 568.205L165.444 542.769L250.961 518.829L362.054 442.52L297.316 570.45L229.382 646.011Z" fill="#8C87E8"/>
<path d="M160.645 568.207L188.618 648.257L206.201 700.626L156.648 705.863L160.645 568.207Z" fill="#7372B3"/>
<path d="M84.7182 479.178L160.645 568.206L156.649 705.862H142.263L66.3359 538.281L0 479.178L6.39382 476.934L14.3861 482.919L23.1776 483.667L27.973 480.675L26.3745 471.697L19.9807 465.712L13.5869 464.216V458.979L23.1776 459.727L33.5676 464.216L39.9614 463.468L41.5598 456.734H55.1467L61.5405 464.216L53.5483 467.208L36.7645 471.697L35.9653 497.133L42.3591 503.867L79.1236 488.156L77.5251 476.934L84.7182 479.178Z" fill="#8C87E8"/>
<path d="M55.9459 429.803L81.5212 438.78L123.081 524.815L84.7181 479.179L77.5251 476.935L53.5483 467.209L61.5405 464.217L71.9305 461.224L69.5328 444.765L60.7413 443.269L55.1467 456.735H41.5598L28.7722 441.773L22.3784 446.262L23.1776 459.728L13.5869 458.98V464.217L8.79151 466.461L6.39382 476.935L0 479.179L1.59846 455.239H9.59073L11.1892 439.529L23.1776 429.055L48.7529 434.292L55.9459 429.803Z" fill="#93CEF0"/>
<path d="M186.217 475.439L204.6 489.654L239.766 485.913L361.248 443.27L250.955 518.831L165.438 542.771L186.217 475.439Z" fill="#7372B3"/>
<path d="M181.422 469.456L203.8 459.73L247.758 467.211L266.939 455.241L271.735 429.805L361.248 443.271L240.565 485.914L204.599 489.655L186.217 475.441L181.422 469.456Z" fill="#8C87E8"/>
<path d="M164 449.5L183.5 458L205.102 449.254L240.5 455.5L250.5 449L258.5 433L261.5 454.5L248 467.5L204.303 459.728L181.5 470L164 449.5Z" fill="#263254"/>
<path d="M144.664 414.094L170.239 424.568L163.846 449.256L155.054 434.293L144.664 414.094Z" fill="#8C87E8"/>
<path d="M336.474 251L342.069 349.753L286.922 318.332L336.474 251Z" fill="#8C87E8"/>
<path d="M135.867 266.711L191.014 323.569L153.45 356.486L135.867 266.711Z" fill="#7372B3"/>
<path d="M53.5518 466.461L78.3278 476.935L79.1271 488.157L42.3626 503.867L35.9688 497.134V471.698L53.5518 466.461Z" fill="#263254"/>
<path d="M60.743 443.27L69.5345 444.766L71.9322 461.225L61.5423 464.217L55.1484 456.736L60.743 443.27Z" fill="#263254"/>
<path d="M22.375 446.262L28.7688 441.773L41.5565 456.736L39.958 463.469L33.5642 464.217L23.1742 459.729L22.375 446.262Z" fill="#263254"/>
<path d="M19.9775 465.715L26.3713 471.7L27.9698 480.678L23.1744 483.67L14.3829 482.922L6.39062 476.937L8.78831 466.463L13.5837 464.219L19.9775 465.715Z" fill="#263254"/>
<path d="M250.158 366.961L283.726 370.452L266.942 387.909H230.977L250.158 366.961Z" fill="#263254"/>
<path d="M159.047 372.195H188.618L194.213 390.15L176.63 387.834L159.047 372.195Z" fill="#263254"/>
<path d="M205.398 438.031L183.819 414.839H221.383L205.398 438.031Z" fill="#263254"/>
<path d="M577.045 998.383L592.231 1002.12V1058.98L572.25 1055.99L577.045 998.383Z" fill="#7372B3"/>
<path d="M592.231 1002.12L607.416 1017.08L621.003 1045.51V1076.19L615.408 1107.61L603.42 1132.3H580.242L592.231 1076.19V1002.12Z" fill="#949FE9"/>
<path d="M395.619 1097.88L593.028 1073.94L581.04 1132.3L442.773 1151L368.445 1136.04L395.619 1097.88Z" fill="#93CEF0"/>
<path d="M362.5 442.5L449.5 554L297 570.5L362.5 442.5Z" fill="#78BEEA"/>
<path d="M412 763.5L229.5 646L403.5 641.5L412 763.5Z" fill="#78BEEA"/>
<path d="M493 825.5V862H424.5L493 825.5Z" fill="#78BEEA"/>
<path d="M310.5 791.5L384.5 862H300.5L310.5 791.5Z" fill="#78BEEA"/>
<path d="M474.5 586L493 610V654.5L474.5 586Z" fill="#78BEEA"/>
<path d="M258.5 433L250.5 449L240.5 455.5L204.5 449.5V437.5L221.5 414.5L224 443.5L239.5 447L258.5 433Z" fill="#78BEEA"/>
<path d="M284 370.5L282.5 383.5L274 393.5L232 412L231 388H267L284 370.5Z" fill="#78BEEA"/>
<path d="M227 357.5L231.5 387.5L237 398L223.5 437.5L221.5 415H204V367L227 357.5Z" fill="#78BEEA"/>
</svg>
