<svg width="912" height="876" viewBox="0 0 912 876" fill="none" xmlns="http://www.w3.org/2000/svg">
<path d="M171.974 53.5299L396.009 46.1426L275.464 226.078L329.781 406.101L114.396 366.472L103.781 225.22L171.974 53.5299Z" fill="#29395F"/>
<path d="M374.896 789.683L490.899 814.75L388.235 887.961L460.72 978.777L241.013 938.353L201.397 827.68L374.896 789.683Z" fill="#29395F"/>
<path d="M796 630.051L912 578.051L804 716.051L796 630.051Z" fill="#2F4373"/>
<rect x="72" y="499.977" width="34.5296" height="36.1344" transform="rotate(-48.6615 72 499.977)" fill="#355BAC"/>
<path d="M849.711 330.051L885.529 347.857L849.711 397.551L823.001 383.778L849.711 330.051Z" fill="#6F91DB"/>
<path d="M111.906 204.051L131.5 230.051L111.906 271.551L85.1963 257.778L111.906 204.051Z" fill="#90CCEB"/>
<path d="M170 313.551H-12.6859L-54 438.551L51 419.551L170 313.551Z" fill="#9DADE2"/>
<path d="M41 148.551L-12.6845 132.051L-53.9987 257.051L78.5 239.551L41 148.551Z" fill="#2F4B8D"/>
</svg>
