<svg width="859" height="728" viewBox="0 0 859 728" fill="none" xmlns="http://www.w3.org/2000/svg">
<path d="M675.674 494.251L657.078 406.22L778.422 462.902L716.161 500.886L675.674 494.251Z" fill="#2F4373"/>
<path d="M542.57 497.496L570.825 481.322L609.536 505.97L592.519 530.74L542.57 497.496Z" fill="#90CCEB"/>
<path d="M44.1546 605.599L83.9326 385L234.574 540.611L421.986 525.271L338.053 727.548L266.425 635.421L44.1546 605.599Z" fill="#29395F"/>
<path d="M783.878 558.941L657.923 541.763L822.548 481.71L783.878 558.941Z" fill="#2F4373"/>
<path d="M571.648 112.496L599.903 96.3216L638.614 120.97L621.597 145.74L571.648 112.496Z" fill="#90CCEB"/>
<path d="M73.2327 220.599L113.011 -0.000457006L263.652 155.611L451.064 140.271L367.131 342.548L295.503 250.421L73.2327 220.599Z" fill="#29395F"/>
<path d="M812.957 173.941L687.001 156.763L851.626 96.71L812.957 173.941Z" fill="#2F4373"/>
<path d="M517.11 375.169L528.034 380.52L531.338 394.871L546.972 407.835L545.633 422.932L536.957 430.68L522.086 429.361L510.382 423.692L502.627 427.138L487.623 426.304L481.427 417.237L481.608 402.037L494.792 393.035L502.95 382.017L517.11 375.169Z" fill="#8FCFF2"/>
<path d="M490.741 344.628L502.381 330.776L512.574 338.295L515.521 360.718L513.303 369.535L501.757 373.225L489.132 362.761L490.741 344.628Z" fill="#8FCFF2"/>
<path d="M532.73 336.69L544.739 342.964L548.238 354.108L545.905 369.282L533.86 376.565L524.623 372.438L520.271 361.798L525.863 343.275L532.73 336.69Z" fill="#8FCFF2"/>
<path d="M474.451 363.364L485.295 369.619L491.603 383.492L483.322 391.853L470.441 391.372L468.459 382.348L468.531 372.432L474.451 363.364Z" fill="#8FCFF2"/>
<path d="M549.252 372.068L564.996 371.645L563.802 385.101L558.164 394.028L552.044 399.274L544.297 398.587L538.153 389.938L540.539 379.234L549.252 372.068Z" fill="#8FCFF2"/>
</svg>
