<svg width="834" height="766" viewBox="0 0 834 766" fill="none" xmlns="http://www.w3.org/2000/svg">
<path d="M292.996 247.305L511.996 199.5L426 398.277L511.996 565.5H292.996L350.637 464.033L292.996 247.305Z" fill="#29395F"/>
<path d="M664.392 614.763L465.148 734.382L315.361 704.731L664.392 614.763Z" fill="#2F4373"/>
<path d="M342.996 54.5L479.496 0L649.996 68V101.5L342.996 54.5Z" fill="#2F4373"/>
<path d="M526.496 344L611.496 314.5L570.496 442L524.996 385L526.496 344Z" fill="#2F4373"/>
<path d="M654.996 255.02L797.496 87.0195L878.995 169.41L654.996 255.02Z" fill="#8FCDF0"/>
<path d="M82.7577 604.593L109.758 670.594L89.2577 719.094L9.25662 656.094L82.7577 604.593Z" fill="#2E539D"/>
</svg>
