<svg width="587" height="844" viewBox="0 0 587 844" fill="none" xmlns="http://www.w3.org/2000/svg">
<path d="M372.685 44.5497L586.716 114.415L399.89 254.729L377.735 455.493L190.999 341.078L298.085 276.634L372.685 44.5497Z" fill="#29395F"/>
<path d="M65.5223 62.1641L77.4839 69.0327L79.8631 83.7985L96.4657 98.9149L93.4663 113.771L82.7994 120.273L65.9344 116.868L53.1129 109.574L43.9158 111.918L26.8521 108.977L20.654 99.0709L22.3405 83.9495L38.2819 76.8321L48.6757 66.998L65.5223 62.1641Z" fill="#8FCFF2"/>
<path d="M38.3705 28.0216L53.0193 15.8534L63.9347 24.7797L65.1204 47.5396L61.7278 56.0141L48.1751 58.0677L34.768 45.8653L38.3705 28.0216Z" fill="#8FCFF2"/>
<path d="M87.1181 26.0157L100.229 33.9568L103.143 45.5533L99.0005 60.3468L84.5287 65.9122L74.375 60.501L70.438 49.2862L78.6307 31.613L87.1181 26.0157Z" fill="#8FCFF2"/>
<path d="M17.9282 44.4004L29.7104 52.1572L35.5689 66.8691L25.2928 74.038L10.6201 71.7479L9.23373 62.4766L10.281 52.6042L17.9282 44.4004Z" fill="#8FCFF2"/>
<path d="M102.557 63.5859L120.589 65.3777L117.915 78.6192L110.604 86.7226L103.1 91.09L94.3143 89.3162L88.1357 79.8336L91.9032 69.5021L102.557 63.5859Z" fill="#8FCFF2"/>
<path d="M331.629 736.864L355.906 771.188L310.189 799.836L284.616 766.151L331.629 736.864Z" fill="#26378D"/>
<path d="M297.403 782.994L310.189 799.836L315.761 825.271L298.84 831.965L275.623 818.99L270.864 800.93L297.403 782.994Z" fill="#26378D"/>
<path d="M247.376 761.64L270.856 752.812L284.616 766.151L297.403 782.994L270.864 800.93L253.004 787.096L247.376 761.64Z" fill="#26378D"/>
<path d="M382.95 745.927L386.241 774.859L371.814 779.558L355.982 771.814L343.767 754.026L366.808 735.231L382.95 745.927Z" fill="#26378D"/>
<path d="M358.896 713.861L366.808 735.231L343.767 754.026L331.629 736.864L329.453 717.598L341.858 707.443L358.896 713.861Z" fill="#26378D"/>
<rect x="525" y="676.59" width="34.5296" height="36.1344" transform="rotate(-16.1215 525 676.59)" fill="#948FE9"/>
</svg>
