<svg width="625" height="874" viewBox="0 0 625 874" fill="none" xmlns="http://www.w3.org/2000/svg">
<path d="M528.906 569.996L548.5 595.996L528.906 637.496L502.196 623.723L528.906 569.996Z" fill="#90CCEB"/>
<path d="M359.086 89.1015L582.933 100.87L447.465 269.855L486.213 453.859L274.999 395.985L357.405 313.357L359.086 89.1015Z" fill="#29395F"/>
<path d="M498.243 817.111L499.472 689.995L579.718 845.779L498.243 817.111Z" fill="#2F4373"/>
<path d="M257.028 543.45L268.538 547.388L273.617 561.21L290.755 572.109L291.322 587.254L283.688 596.03L268.769 596.588L256.446 592.434L249.185 596.827L234.195 597.882L226.909 589.665L225.181 574.563L237.131 563.977L243.84 552.021L257.028 543.45Z" fill="#8FCFF2"/>
<path d="M227.031 516.465L236.84 501.261L247.896 507.441L253.635 529.317L252.542 538.342L241.55 543.452L227.712 534.656L227.031 516.465Z" fill="#8FCFF2"/>
<path d="M267.692 503.318L280.394 508.036L285.264 518.651L284.855 533.998L273.82 542.736L264.137 539.802L258.484 529.792L261.707 510.713L267.692 503.318Z" fill="#8FCFF2"/>
<path d="M213.225 537.095L224.768 541.938L232.769 554.909L225.603 564.245L212.763 565.385L209.664 556.681L208.49 546.833L213.225 537.095Z" fill="#8FCFF2"/>
<path d="M288.522 536.339L304.088 533.943L304.594 547.442L300.121 557.007L294.708 562.979L286.935 563.27L279.755 555.461L280.777 544.542L288.522 536.339Z" fill="#8FCFF2"/>
<path d="M234.93 177.516L92.4297 9.51564L10.9304 91.9058L234.93 177.516Z" fill="#8FCDF0"/>
<path d="M219.5 775.496L304.5 745.996L263.5 873.496L218 816.496L219.5 775.496Z" fill="#2F4373"/>
</svg>
