<svg width="820" height="952" viewBox="0 0 820 952" fill="none" xmlns="http://www.w3.org/2000/svg">
<path d="M819.5 262.631L495.099 72.45L374.243 42.2625L314.452 72.45L175.786 0L1.5 92.0719V923.738L188.508 966L539.624 876.947H774.974L794.057 624.881L819.5 262.631Z" fill="#2F477D"/>
<path d="M643.87 579.601L778.144 533L713.376 734.411L641.5 644.369L643.87 579.601Z" fill="#2F4373"/>
<path d="M78.5 261.384L194.608 229L257.795 241.638L244.368 439.099L154.325 450.947L87.1883 396.448L78.5 261.384Z" fill="#2F4373"/>
<path d="M0 92.5L176.128 0L445.466 107.419V160.339L0 92.5Z" fill="#2F4373"/>
<path d="M601.262 685.093L628.262 751.094L607.762 799.594L527.761 736.594L601.262 685.093Z" fill="#2E539D"/>
</svg>
