<svg width="911" height="423" viewBox="0 0 911 423" fill="none" xmlns="http://www.w3.org/2000/svg">
<path d="M224.038 63.5299L0.00248927 56.1426L120.548 236.078L66.2307 416.101L281.615 376.472L292.231 235.22L224.038 63.5299Z" fill="#29395F"/>
<rect x="404.004" y="9.58984" width="34.5296" height="36.1344" transform="rotate(-16.1215 404.004 9.58984)" fill="#948FE9"/>
<path d="M517.516 328.671L535.601 338.879L539.295 360.656L564.437 383.052L560.022 404.923L543.985 414.428L518.531 409.289L499.146 398.447L485.295 401.836L459.545 397.38L450.128 382.736L452.562 360.465L476.548 350.091L492.149 335.674L517.516 328.671Z" fill="#948FE9"/>
<path d="M476.317 278.165L498.317 260.339L514.84 273.572L516.792 307.121L511.737 319.585L491.317 322.513L471.013 304.435L476.317 278.165Z" fill="#948FE9"/>
<path d="M549.817 275.559L569.644 287.356L574.121 304.466L567.981 326.236L546.2 334.334L530.851 326.286L524.834 309.731L537.06 283.746L549.817 275.559Z" fill="#948FE9"/>
<path d="M445.618 302.156L463.439 313.672L472.378 335.394L456.935 345.885L434.795 342.404L432.638 328.732L434.146 314.191L445.618 302.156Z" fill="#948FE9"/>
<path d="M573.355 331.037L600.556 333.807L596.62 353.301L585.654 365.19L574.372 371.572L561.111 368.895L551.727 354.877L557.333 339.679L573.355 331.037Z" fill="#948FE9"/>
<path d="M795.145 130.49L778.255 170.157L838.874 193.204L857.428 154.009L795.145 130.49Z" fill="#8C87E8"/>
<path d="M848.151 173.607L838.874 193.204L840.421 220.704L861.651 225.139L883.933 208.003L883.744 188.354L848.151 173.607Z" fill="#8C87E8"/>
<path d="M898.206 143.604L868.89 137.934L857.428 154.009L848.151 173.607L883.744 188.354L899.696 171.135L898.206 143.604Z" fill="#8C87E8"/>
<path d="M739.828 147.812L745.037 178.629L762.826 181.352L778.363 170.824L786.7 150.324L754.803 134.143L739.828 147.812Z" fill="#8C87E8"/>
<path d="M757.161 110.545L754.803 134.143L786.7 150.324L795.145 130.49L791.658 109.971L774.473 101.222L757.161 110.545Z" fill="#8C87E8"/>
</svg>
