<svg width="1260" height="887" viewBox="0 0 1260 887" fill="none" xmlns="http://www.w3.org/2000/svg">
<path d="M1166.03 533.53L941.995 526.143L1062.54 706.078L1008.22 886.101L1223.61 846.472L1234.22 705.22L1166.03 533.53Z" fill="#29395F"/>
<path d="M499.996 465.805L718.996 418L633 616.777L718.996 784H499.996L557.637 682.533L499.996 465.805Z" fill="#29395F"/>
<path d="M82.7577 410.093L109.758 476.094L89.2577 524.594L9.25662 461.594L82.7577 410.093Z" fill="#2E539D"/>
<path d="M569.892 29.6324L685.895 54.6996L583.231 127.91L655.716 218.726L436.01 178.303L396.393 67.6294L569.892 29.6324Z" fill="#29395F"/>
<path d="M1180.9 183L1216.72 200.807L1180.9 250.5L1154.19 236.727L1180.9 183Z" fill="#6F91DB"/>
<path d="M842.137 318.49L825.247 358.157L885.866 381.204L904.42 342.009L842.137 318.49Z" fill="#8C87E8"/>
<path d="M895.143 361.607L885.866 381.204L887.414 408.704L908.643 413.139L930.926 396.003L930.736 376.354L895.143 361.607Z" fill="#8C87E8"/>
<path d="M945.198 331.604L915.882 325.934L904.42 342.009L895.143 361.607L930.736 376.354L946.688 359.135L945.198 331.604Z" fill="#8C87E8"/>
<path d="M786.82 335.812L792.03 366.629L809.818 369.352L825.355 358.824L833.692 338.324L801.795 322.143L786.82 335.812Z" fill="#8C87E8"/>
<path d="M804.153 298.545L801.795 322.143L833.692 338.324L842.137 318.49L838.65 297.971L821.465 289.222L804.153 298.545Z" fill="#8C87E8"/>
</svg>
