<svg width="41" height="44" viewBox="0 0 41 44" fill="none" xmlns="http://www.w3.org/2000/svg">
<g clip-path="url(#clip0_737_1059)">
<path d="M20.481 43.9986C26.7119 43.9986 32.9296 43.9986 39.1604 43.9986C40.4224 43.9986 41.027 43.4241 41.0007 42.2508C40.9876 41.2974 40.9087 40.3563 40.7247 39.4274C39.3839 32.7297 35.3746 27.963 28.7625 25.0663C28.1841 24.8097 27.6452 24.8097 27.0668 25.0663C25.1739 25.8852 23.1627 26.313 21.0726 26.3741C18.6013 26.4597 16.2483 26.0197 13.9873 25.0786C13.4483 24.8586 12.9357 24.773 12.3836 25.0052C4.57529 28.4519 0.434537 34.1841 0.000744189 42.2019C-0.064982 43.4486 0.565989 43.9986 1.89366 43.9986C8.08507 43.9986 14.2896 43.9986 20.481 43.9986Z" fill="#FEFEFE"/>
<path d="M7.88674 11.709C7.8736 18.1745 13.5392 23.4667 20.493 23.4667C27.4337 23.479 33.0993 18.2356 33.1256 11.7823C33.1519 5.31675 27.4994 0.0245292 20.5456 8.4731e-05C13.5786 -0.0243597 7.89989 5.24342 7.88674 11.709Z" fill="#FEFEFE"/>
<path d="M20.481 43.9992C14.2896 43.9992 8.09821 43.9992 1.89366 43.9992C0.565989 43.9992 -0.064982 43.4492 0.00074419 42.2025C0.434537 34.1847 4.56214 28.4525 12.3836 25.018C12.9357 24.7736 13.4483 24.8592 13.9873 25.0914C16.2351 26.0325 18.6013 26.4725 21.0726 26.3869C23.1627 26.3136 25.1607 25.8858 27.0668 25.0792C27.6452 24.8225 28.1841 24.8225 28.7625 25.0792C35.3877 27.9758 39.397 32.7425 40.7247 39.4403C40.9087 40.3692 40.9876 41.3103 41.0007 42.2636C41.0139 43.4492 40.4092 44.0114 39.1604 44.0114C32.9296 43.9992 26.6987 43.9992 20.481 43.9992Z" fill="#93CEF0"/>
<path d="M7.88681 11.709C7.89996 5.24342 13.5787 -0.0243597 20.5457 8.4731e-05C27.4995 0.0245292 33.152 5.31675 33.1257 11.7823C33.0994 18.2356 27.4206 23.479 20.4931 23.4667C13.5261 23.4545 7.86052 18.1745 7.88681 11.709Z" fill="#93CEF0"/>
</g>
<defs>
<clipPath id="clip0_737_1059">
<rect width="41" height="44" fill="white"/>
</clipPath>
</defs>
</svg>
