<svg width="41" height="44" viewBox="0 0 41 44" fill="none" xmlns="http://www.w3.org/2000/svg">
<g clip-path="url(#clip0_737_1076)">
<path d="M20.5 0C12.0438 0 5.125 5.65714 5.125 12.5714V14.6667C2.30625 14.6667 0 16.5524 0 18.8571V39.8095C0 42.1143 2.30625 44 5.125 44H35.875C38.6938 44 41 42.1143 41 39.8095V18.8571C41 16.5524 38.6938 14.6667 35.875 14.6667V12.5714C35.875 5.65714 28.9562 0 20.5 0ZM20.5 4.19048C26.3937 4.19048 30.75 7.75238 30.75 12.5714V14.6667H10.25V12.5714C10.25 7.75238 14.6063 4.19048 20.5 4.19048ZM20.5 25.1429C23.3188 25.1429 25.625 27.0286 25.625 29.3333C25.625 31.6381 23.3188 33.5238 20.5 33.5238C17.6812 33.5238 15.375 31.6381 15.375 29.3333C15.375 27.0286 17.6812 25.1429 20.5 25.1429Z" fill="#93CEF0"/>
</g>
<defs>
<clipPath id="clip0_737_1076">
<rect width="41" height="44" fill="white"/>
</clipPath>
</defs>
</svg>
