<svg width="41" height="39" viewBox="0 0 41 39" fill="none" xmlns="http://www.w3.org/2000/svg">
<g clip-path="url(#clip0_707_44)">
<path d="M27.8429 38.8995C27.8429 38.8692 27.8429 38.8389 27.8429 38.8187C28.7663 38.8187 29.6897 38.8187 30.6131 38.8187C30.8671 38.8187 31.1095 38.7985 31.2942 38.6168C32.2638 37.6173 33.2333 36.6279 34.2029 35.6285C34.3415 35.4972 34.3992 35.3559 34.3992 35.1741C34.3876 34.3665 34.3761 33.5588 34.3761 32.7512C34.3761 31.7921 34.353 30.833 34.4223 29.884C34.4453 29.4498 34.353 29.1571 33.949 28.8946C31.9867 27.6225 30.0475 26.3302 28.0853 25.0582C27.7736 24.8563 27.5889 24.6241 27.4735 24.301C26.8964 22.6756 26.3077 21.0602 25.719 19.4449C25.6497 19.2632 25.6497 19.0512 25.3612 18.9805C23.9876 18.6373 22.7294 18.0517 21.4135 17.5772C21.2635 17.5267 21.148 17.4964 20.9864 17.5772C19.105 18.4757 17.212 19.3742 15.3189 20.2728C15.1458 20.3535 15.0188 20.4545 14.9149 20.616C14.0723 21.9588 13.1951 23.2813 12.3524 24.614C12.1331 24.9572 11.8561 25.2399 11.5214 25.5024C10.067 26.623 8.62412 27.7638 7.15818 28.8845C6.90424 29.0763 6.80036 29.2681 6.82344 29.571C6.95041 31.4791 7.0543 33.3973 7.15818 35.3155C7.16973 35.5477 7.25053 35.7193 7.43521 35.8909C8.23166 36.6178 9.07429 37.3245 9.80148 38.1019C10.3786 38.7178 11.0135 38.8995 11.9138 38.8389C14.4301 38.6774 17.0042 38.7985 19.2089 37.4255C19.4974 37.2438 19.7975 37.264 20.1323 37.3851C21.5405 37.8798 22.9718 38.3341 24.3685 38.8389C24.7725 38.9904 25.1649 39.0307 25.592 39.0105C26.3423 38.9601 27.0926 38.9298 27.8429 38.8995Z" fill="#253254"/>
<path d="M33.1152 10.6913C33.1613 9.77255 33.2191 8.84374 33.2768 7.92503C33.2883 7.79378 33.2652 7.65244 33.2191 7.53129C32.6535 6.19865 31.9955 4.8862 31.58 3.50307C31.5338 3.36173 31.4299 3.32135 31.303 3.27087C29.6639 2.64493 28.0248 2.0089 26.3973 1.37286C26.201 1.30219 26.0741 1.34258 25.8778 1.41325C25.4738 1.55459 25.4738 1.91804 25.243 2.14014C24.6081 2.74589 23.9964 3.38193 23.3846 4.00786C23.2576 4.12901 23.1191 4.24007 23.096 4.43189C22.7844 6.48133 22.2765 8.50049 21.8725 10.5398C21.7455 11.2062 21.5839 11.8119 22.0456 12.5186C22.692 13.5181 23.0845 14.6488 23.5231 15.7493C23.6732 16.1329 23.9733 16.3247 24.3311 16.3348C25.0006 16.3651 25.5893 16.6074 26.2241 16.7487C26.8359 16.88 27.4707 17.2636 28.0133 17.1627C28.5673 17.0617 29.0059 16.5165 29.5023 16.1632C30.4719 15.4666 31.3953 14.7296 32.4226 14.1036C32.8843 13.821 33.0113 13.5383 33.0113 13.0941C32.9997 12.2965 33.0805 11.4888 33.1152 10.6913Z" fill="#253254"/>
<path d="M40.8156 16.9822C40.8733 16.9822 40.9425 16.9822 41.0002 16.9822C41.0002 16.1443 41.0002 15.3063 41.0002 14.4684C41.0002 14.2867 41.0118 13.9939 40.7232 14.0949C40.2384 14.2665 39.7421 14.1655 39.2573 14.2362C38.0222 14.4179 36.7987 14.7107 35.552 14.8218C34.7556 14.8924 34.0284 15.0035 33.4512 15.6294C32.7125 16.4371 31.8468 17.164 31.0388 17.9313C30.9465 18.012 30.831 18.0827 30.8195 18.2139C30.8079 19.5769 30.4732 20.9196 30.3347 22.2623C30.3232 22.4138 30.3462 22.5551 30.4617 22.6864C31.2812 23.5748 32.1007 24.4632 32.9087 25.3617C33.0819 25.5637 33.2897 25.604 33.5551 25.604C34.3978 25.5939 35.2519 25.5939 36.0945 25.6141C36.3139 25.6141 36.4408 25.5839 36.5909 25.4425C37.8837 24.1603 39.3265 22.9892 39.9614 21.2931C40.1576 20.7581 40.3538 20.2028 40.7578 19.7384C40.8156 19.6677 40.8156 19.5466 40.8156 19.4456C40.8156 18.6279 40.8156 17.8 40.8156 16.9822Z" fill="#253254"/>
<path d="M8.31063 9.72344C8.31063 10.6825 8.32217 11.6416 8.29909 12.6007C8.28754 13.0651 8.22983 13.5094 8.9224 13.6507C9.03783 13.681 9.14171 13.792 9.2456 13.8627C10.85 14.9228 12.466 15.9929 14.0705 17.0631C14.2205 17.164 14.336 17.3155 14.613 17.164C15.9173 16.4472 17.2909 15.8516 18.7107 15.3367C19.057 15.2155 19.1262 15.0641 19.1493 14.8016C19.2532 13.8425 19.3686 12.8935 19.4841 11.9344C19.5071 11.7022 19.4841 11.47 19.4263 11.2378C18.7684 8.50185 18.1105 5.77599 17.4871 3.04004C17.4063 2.69678 17.2678 2.48477 16.9331 2.29295C15.7096 1.58625 14.5091 0.869444 13.3087 0.132452C12.9739 -0.0694632 12.7892 -0.0492716 12.5815 0.253602C11.3926 2.14151 9.98433 3.90827 8.62228 5.69523C8.54148 5.80628 8.41451 5.89714 8.4376 6.04858C8.61074 7.28027 8.34526 8.50185 8.31063 9.72344Z" fill="#253254"/>
<path d="M4.21113 25.3589C5.01912 25.3286 5.82712 25.2782 6.63512 25.258C7.01603 25.2479 7.26997 25.1267 7.50082 24.8642C8.35499 23.895 9.23224 22.9259 10.121 21.9768C10.4558 21.6134 10.8021 21.2903 10.1903 20.8966C10.121 20.8461 10.098 20.7553 10.0518 20.6745C9.20916 19.2712 8.36653 17.878 7.52391 16.4746C7.43157 16.3333 7.36231 16.192 7.16608 16.1011C5.67706 15.4752 4.18804 14.8492 2.71057 14.2031C2.422 14.0819 2.22577 14.0416 2.07571 14.3545C1.64863 15.2632 1.0484 16.091 0.482806 16.9189C0.0788084 17.5145 -0.0366195 18.0698 0.00955171 18.7765C0.136522 20.8663 0.563606 22.9057 1.23309 24.9046C1.39469 25.3791 1.60246 25.5205 2.13343 25.4599C2.82599 25.4094 3.51856 25.3993 4.21113 25.3589Z" fill="#253254"/>
<path d="M27.8429 38.9001C27.0926 38.9304 26.3423 38.9607 25.592 38.991C25.1649 39.0112 24.7725 38.9607 24.3685 38.8194C22.9603 38.3146 21.5405 37.8502 20.1323 37.3656C19.7975 37.2444 19.4974 37.2242 19.2089 37.406C17.0042 38.779 14.4301 38.6578 11.9138 38.8194C11.0019 38.88 10.3786 38.6982 9.80148 38.0824C9.07429 37.305 8.24321 36.5983 7.43521 35.8714C7.25053 35.6998 7.16973 35.5282 7.15818 35.296C7.0543 33.3778 6.95041 31.4697 6.82344 29.5515C6.80036 29.2486 6.90424 29.0568 7.15818 28.8649C8.62412 27.7443 10.0554 26.6136 11.5214 25.4829C11.8561 25.2204 12.1331 24.9377 12.3524 24.5944C13.2066 23.2618 14.0723 21.9291 14.9149 20.5965C15.0188 20.435 15.1458 20.334 15.3189 20.2532C17.212 19.3547 19.0934 18.4663 20.9864 17.5577C21.148 17.4769 21.275 17.5072 21.4135 17.5577C22.7294 18.0322 23.9876 18.6177 25.3612 18.961C25.6613 19.0317 25.6613 19.2538 25.719 19.4254C26.3077 21.0407 26.8964 22.656 27.4735 24.2815C27.5889 24.6045 27.7736 24.8367 28.0853 25.0386C30.0475 26.3107 31.9867 27.603 33.949 28.875C34.353 29.1375 34.4453 29.4303 34.4223 29.8644C34.3645 30.8235 34.3876 31.7826 34.3761 32.7316C34.3761 33.5393 34.3876 34.347 34.3992 35.1546C34.3992 35.3363 34.3415 35.4777 34.2029 35.6089C33.2333 36.5983 32.2522 37.5978 31.2942 38.5973C31.1095 38.7891 30.8671 38.7992 30.6131 38.7992C29.6897 38.7992 28.7663 38.7992 27.8429 38.7992C27.8429 38.8396 27.8429 38.8699 27.8429 38.9001Z" fill="#7EC9EE"/>
<path d="M25.5923 31.8109C25.4768 31.6797 25.3845 31.5585 25.2691 31.4475C24.2071 30.3773 23.1567 29.3172 22.0832 28.2471C21.2983 27.4697 21.2983 27.4697 20.5019 28.2471C19.3938 29.3374 18.2857 30.4379 17.166 31.5282C16.9467 31.7402 16.8774 31.9119 17.0506 32.1844C17.8586 33.4262 18.6435 34.6781 19.4169 35.9401C19.59 36.2329 19.7285 36.243 20.0171 36.0309C21.7831 34.7084 23.5607 33.406 25.3268 32.0936C25.4307 32.033 25.4999 31.922 25.5923 31.8109Z" fill="#7EC9EE"/>
<path d="M15.8036 31.5679C15.7806 31.5174 15.7459 31.4568 15.7113 31.4063C14.6032 29.6396 13.4835 27.8728 12.3754 26.1061C12.2369 25.8739 12.1099 25.8739 11.8906 26.0354C10.6094 27.045 9.31659 28.0545 8.0238 29.054C7.79294 29.2357 7.79294 29.3569 8.00071 29.5386C9.25888 30.6895 10.517 31.8506 11.7637 33.0116C11.9368 33.163 12.0869 33.2034 12.3177 33.1125C13.3797 32.6885 14.4531 32.2746 15.5266 31.8607C15.6767 31.8001 15.8498 31.7597 15.8036 31.5679Z" fill="#7EC9EE"/>
<path d="M16.0567 35.2153C16.0105 35.2153 15.9644 35.2153 15.9182 35.2153C15.9182 34.4379 15.9067 33.6706 15.9182 32.8933C15.9297 32.5298 15.8259 32.449 15.4334 32.6106C13.1364 33.5192 10.8394 34.4076 8.53081 35.2961C8.17299 35.4374 8.08064 35.5384 8.3923 35.8109C9.14258 36.4773 9.86978 37.1739 10.597 37.8705C10.8278 38.0825 11.0702 38.1835 11.405 38.1633C12.8016 38.0825 14.2099 38.0118 15.6065 37.9613C15.9644 37.9512 16.0567 37.82 16.0567 37.5272C16.0452 36.7599 16.0567 35.9826 16.0567 35.2153Z" fill="#7EC9EE"/>
<path d="M28.0854 38.2312C28.0854 38.2413 28.0854 38.2413 28.0854 38.2514C28.8126 38.2211 29.5398 38.1707 30.267 38.1707C30.6363 38.1707 30.7749 38.0293 30.8672 37.7567C31.2366 36.6462 31.6175 35.5458 32.0215 34.4453C32.1254 34.1626 31.9753 34.092 31.7329 34.0112C30.1285 33.4963 28.524 32.9814 26.9311 32.4564C26.5733 32.3353 26.504 32.4363 26.4001 32.729C26.1347 33.4963 26.1462 34.304 26.0077 35.0813C25.8461 36.0102 25.696 36.939 25.5113 37.8678C25.4421 38.211 25.5113 38.3625 25.9615 38.3322C26.6656 38.2716 27.3813 38.2615 28.0854 38.2312Z" fill="#7EC9EE"/>
<path d="M13.5283 25.9961C13.4821 26.0062 13.3436 25.9961 13.309 26.0365C13.2051 26.1778 13.3552 26.2889 13.4244 26.3999C14.2093 27.6518 14.9942 28.8936 15.7791 30.1455C16.4602 31.2358 16.4717 31.2459 17.4182 30.3171C18.3763 29.3782 19.3228 28.4292 20.2808 27.5004C20.5117 27.2682 20.5348 27.1571 20.1308 27.1066C19.6229 27.0461 19.115 26.935 18.6071 26.8542C16.9219 26.5615 15.2482 26.2788 13.5283 25.9961Z" fill="#7EC9EE"/>
<path d="M13.3438 25.1871C13.3553 25.2275 13.3553 25.2679 13.3668 25.3083C15.6869 25.702 18.007 26.0856 20.3271 26.4794C20.7196 26.55 20.6273 26.3481 20.5465 26.1563C20.0732 25.0862 19.5999 24.0261 19.1382 22.956C19.0343 22.7237 18.9189 22.6228 18.6303 22.7641C18.0763 23.0266 17.5222 23.279 16.9682 23.5415C15.7447 24.0867 14.5442 24.6319 13.3438 25.1871Z" fill="#7EC9EE"/>
<path d="M25.6131 33.0635C25.6246 32.9828 25.6477 32.8818 25.5438 32.8313C25.4168 32.7607 25.336 32.8717 25.2552 32.9323C24.5973 33.4371 23.9509 33.9621 23.2814 34.4568C22.4157 35.113 21.5269 35.7692 20.6497 36.4153C20.4303 36.5769 20.2572 36.7081 20.6843 36.8495C21.9078 37.2533 23.1198 37.6773 24.3318 38.0912C24.5396 38.1619 24.7127 38.1922 24.7474 37.9297C25.0475 36.3144 25.3245 34.689 25.6131 33.0635Z" fill="#7EC9EE"/>
<path d="M7.72072 30.2148C7.67455 30.235 7.63992 30.2552 7.59375 30.2754C7.67455 31.6989 7.74381 33.1224 7.82461 34.5459C7.84769 34.8791 8.067 34.768 8.26323 34.6974C8.93271 34.4349 9.6022 34.1825 10.2601 33.92C11.2759 33.5263 11.2874 33.5263 10.5141 32.7994C9.6022 31.921 8.65569 31.073 7.72072 30.2148Z" fill="#7EC9EE"/>
<path d="M13.3789 24.3024C13.4135 24.3327 13.4366 24.3529 13.4712 24.3831C14.9834 23.7067 16.507 23.0303 18.0076 22.3337C18.3308 22.1823 18.1115 22.0813 17.9268 22.0106C17.2342 21.728 16.5301 21.4453 15.8375 21.1525C15.6067 21.0515 15.4566 21.0717 15.3181 21.2837C14.6832 22.2933 14.0253 23.2928 13.3789 24.3024Z" fill="#7EC9EE"/>
<path d="M16.793 33.1133C16.793 34.5772 16.793 35.9704 16.793 37.3535C16.793 37.5958 16.8969 37.6463 17.1508 37.5453C17.7049 37.303 18.2474 37.0708 18.813 36.8386C19.0323 36.7478 19.0207 36.6367 18.9168 36.4752C18.2243 35.3747 17.5317 34.2743 16.793 33.1133Z" fill="#7EC9EE"/>
<path d="M18.6749 21.6544C18.975 21.7251 19.0558 21.5535 19.1366 21.3717C19.4136 20.8064 19.7022 20.241 19.9677 19.6656C20.1178 19.3425 20.5333 18.8983 20.314 18.7367C20.0139 18.5045 19.6445 18.9588 19.3098 19.1103C18.3979 19.5141 17.5206 19.9482 16.6318 20.3723C16.5049 20.4328 16.1586 20.5338 16.4818 20.6953C17.1974 21.0386 17.9823 21.2708 18.6749 21.6544Z" fill="#7EC9EE"/>
<path d="M33.1173 10.6895C33.0711 11.4972 33.0018 12.3049 32.9903 13.1125C32.9903 13.5567 32.8633 13.8293 32.4016 14.1221C31.3743 14.748 30.4509 15.485 29.4813 16.1816C28.9849 16.535 28.5463 17.0802 27.9923 17.1811C27.4497 17.2821 26.8149 16.8984 26.2031 16.7672C25.5798 16.6259 24.9796 16.3836 24.3101 16.3533C23.9523 16.3432 23.6522 16.1413 23.5021 15.7677C23.0635 14.6774 22.671 13.5466 22.0246 12.5371C21.5629 11.8304 21.7245 11.2246 21.863 10.5482C22.2555 8.50885 22.7634 6.48969 23.0866 4.44025C23.1212 4.24843 23.2597 4.14747 23.3751 4.01623C23.9869 3.39029 24.5871 2.75425 25.2335 2.14851C25.4759 1.9264 25.4644 1.56295 25.8684 1.42161C26.0646 1.35094 26.1916 1.30046 26.3878 1.38123C28.0269 2.01726 29.6544 2.6432 31.2935 3.27924C31.4205 3.32971 31.5244 3.3701 31.5705 3.51144C31.9861 4.89456 32.644 6.20701 33.2096 7.53965C33.2558 7.6608 33.2789 7.80214 33.2673 7.93339C33.2327 8.84201 33.175 9.76073 33.1173 10.6895Z" fill="#7EC9EE"/>
<path d="M24.4712 15.5489C25.1754 15.1248 25.8102 14.721 26.4681 14.3475C26.7336 14.1859 26.9068 13.9941 27.0222 13.7316C27.634 12.3182 28.2457 10.9048 28.869 9.49139C28.9729 9.2491 29.0076 9.0068 28.9152 8.7544C28.719 8.15875 28.5228 7.5631 28.3496 6.95735C28.2573 6.64438 28.1534 6.59391 27.8764 6.8362C27.2992 7.36118 26.7221 7.87607 26.1219 8.37076C25.7756 8.65344 25.6024 8.95632 25.5216 9.36015C25.21 11.1168 24.8637 12.8735 24.5405 14.6301C24.4943 14.8926 24.3904 15.1551 24.4712 15.5489Z" fill="#7EC9EE"/>
<path d="M22.6719 10.348C22.7065 10.3682 22.7296 10.3783 22.7642 10.3985C23.4568 9.80288 24.1494 9.19713 24.8419 8.60148C24.992 8.47023 24.992 8.29861 25.0151 8.12698C25.142 6.58232 25.269 5.03767 25.3844 3.49301C25.396 3.37187 25.4883 3.22043 25.2344 3.10938C24.8304 3.66464 24.0455 4.018 23.8839 4.69441C23.4222 6.57223 23.0643 8.46014 22.6719 10.348Z" fill="#7EC9EE"/>
<path d="M24.7257 9.7536C24.6796 9.73341 24.6449 9.72332 24.5988 9.70312C23.9639 10.2584 23.3406 10.8238 22.6942 11.379C22.4864 11.5607 22.5326 11.7223 22.625 11.9242C22.9712 12.6713 23.2944 13.4285 23.6292 14.1756C23.6638 14.2563 23.6523 14.3876 23.86 14.3573C24.1371 12.8227 24.4372 11.2882 24.7257 9.7536Z" fill="#7EC9EE"/>
<path d="M25.3008 15.8299C26.0857 16.0318 26.709 16.1833 27.3208 16.365C27.644 16.4659 27.8056 16.3852 27.9441 16.1227C28.2788 15.4664 28.6597 14.8203 29.006 14.1742C29.133 13.942 29.3292 13.7401 29.3523 13.3867C27.9903 14.2045 26.709 14.9819 25.3008 15.8299Z" fill="#7EC9EE"/>
<path d="M28.0273 13.2149C28.0735 13.2552 28.1081 13.2855 28.1543 13.3259C28.7199 12.9827 29.274 12.6495 29.8396 12.3062C29.9434 12.2457 30.0012 12.1548 29.9665 12.0538C29.7934 11.4885 29.6087 10.913 29.424 10.3477C29.3778 10.3477 29.3317 10.3477 29.2971 10.3477C28.8584 11.2967 28.4429 12.2558 28.0273 13.2149Z" fill="#7EC9EE"/>
<path d="M25.7734 7.63307C25.8196 7.66336 25.8773 7.68355 25.9235 7.71384C26.189 7.46145 26.466 7.20905 26.7315 6.94656C27.0201 6.66388 27.6549 6.3812 27.5395 6.11871C27.401 5.77545 26.7199 5.80574 26.2813 5.63411C26.0505 5.54325 25.9235 5.60382 25.912 5.83602C25.8773 6.43168 25.8196 7.03742 25.7734 7.63307Z" fill="#7EC9EE"/>
<path d="M40.8169 16.98C40.8169 17.8078 40.8169 18.6256 40.8169 19.4534C40.8169 19.5544 40.8169 19.6755 40.7592 19.7462C40.3436 20.2106 40.159 20.7659 39.9627 21.301C39.3279 22.9971 37.885 24.1682 36.5922 25.4503C36.4537 25.5917 36.3152 25.6321 36.0959 25.622C35.2533 25.6018 34.3991 25.6018 33.5565 25.6119C33.291 25.6119 33.0948 25.5715 32.9101 25.3696C32.1021 24.471 31.2826 23.5826 30.463 22.6942C30.336 22.5629 30.313 22.4317 30.336 22.2702C30.4861 20.9173 30.8093 19.5847 30.8208 18.2217C30.8208 18.0905 30.9478 18.0198 31.0402 17.9391C31.8481 17.1819 32.7139 16.455 33.4526 15.6372C34.0182 15.0113 34.7569 14.9002 35.5534 14.8296C36.8116 14.7185 38.0235 14.4156 39.2586 14.244C39.7434 14.1733 40.2398 14.2642 40.7246 14.1027C41.0016 14.0017 41.0016 14.2945 41.0016 14.4762C41.0016 15.3142 41.0016 16.1521 41.0016 16.9901C40.9439 16.98 40.8746 16.98 40.8169 16.98Z" fill="#7EC9EE"/>
<path d="M35.0435 20.2025C34.7781 18.7992 34.5472 17.5271 34.3048 16.255C34.2702 16.0531 34.1778 15.932 33.947 16.1541C33.3352 16.7295 32.7234 17.305 32.1001 17.8703C31.9039 18.042 31.9039 18.1631 32.1348 18.3045C33.0582 18.9001 33.9816 19.5059 35.0435 20.2025Z" fill="#7EC9EE"/>
<path d="M31.1758 21.5648C31.1181 21.8576 31.2797 21.8475 31.5106 21.7869C32.1454 21.6052 32.7918 21.4235 33.4267 21.2317C33.7614 21.1307 34.1308 21.1206 34.454 20.9591C34.6271 20.8682 34.7079 20.8076 34.5117 20.6764C33.6229 20.0908 32.7341 19.5053 31.8453 18.9197C31.6722 18.8087 31.5567 18.839 31.5336 19.0308C31.4067 19.8788 31.2912 20.7269 31.1758 21.5648Z" fill="#7EC9EE"/>
<path d="M33.1382 24.6246C33.2536 24.4933 33.3113 24.4529 33.3459 24.3924C33.7961 23.5443 34.2463 22.6862 34.6849 21.828C34.8349 21.5453 34.6041 21.5554 34.3963 21.6059C33.4844 21.8684 32.5841 22.141 31.6722 22.4035C31.3837 22.4843 31.349 22.5852 31.5453 22.7871C32.03 23.302 32.5033 23.8371 32.9766 24.3621C33.0343 24.4428 33.0689 24.5135 33.1382 24.6246Z" fill="#7EC9EE"/>
<path d="M8.30967 9.72378C8.3443 8.50219 8.60978 7.2806 8.43664 6.04892C8.41356 5.89748 8.54053 5.79652 8.62133 5.69556C9.98338 3.89852 11.3916 2.14185 12.6036 0.253938C12.7998 -0.0489354 12.996 -0.0792228 13.3308 0.132789C14.5197 0.869781 15.7317 1.59668 16.9552 2.29329C17.29 2.48511 17.4285 2.69712 17.5093 3.04037C18.1326 5.77633 18.7905 8.51229 19.4485 11.2381C19.5062 11.4704 19.5293 11.7026 19.5062 11.9348C19.3908 12.8838 19.2753 13.8429 19.1714 14.802C19.1484 15.0745 19.0676 15.2159 18.7328 15.337C17.313 15.8418 15.9279 16.4375 14.6351 17.1644C14.3581 17.3158 14.2542 17.1644 14.0926 17.0634C12.4651 15.9933 10.8491 14.9231 9.24464 13.8631C9.14075 13.7924 9.03687 13.6813 8.92144 13.651C8.24041 13.5097 8.28659 13.0655 8.29813 12.6011C8.32121 11.642 8.30967 10.6829 8.30967 9.72378Z" fill="#7EC9EE"/>
<path d="M13.564 15.8414C13.587 15.8414 13.6217 15.8414 13.6448 15.8414C13.6332 15.8313 13.6217 15.8212 13.6101 15.801C13.5986 15.7 13.6101 15.5991 13.5755 15.4981C13.1369 13.8929 12.6867 12.2978 12.2365 10.6925C12.2019 10.5815 12.225 10.4502 12.0057 10.3594C11.1515 11.1771 10.2858 12.005 9.4201 12.8227C9.2585 12.9843 9.32776 13.0852 9.48936 13.1963C9.85873 13.4386 10.2166 13.691 10.5859 13.9333C11.5901 14.5693 12.5136 15.2861 13.564 15.8414Z" fill="#7EC9EE"/>
<path d="M18.7462 11.8734C18.7577 11.8027 18.7347 11.6715 18.6654 11.5503C17.8343 10.0158 17.0032 8.48122 16.1722 6.94666C16.0452 6.71446 15.9298 6.6236 15.6874 6.8659C14.8217 7.70385 13.9559 8.5317 13.0787 9.34946C12.9171 9.5009 12.9055 9.61195 13.0787 9.77348C14.7524 11.2576 16.4146 12.7416 18.0883 14.2257C18.1691 14.2964 18.2383 14.4074 18.3653 14.357C18.4923 14.3166 18.4692 14.1853 18.4807 14.0945C18.5731 13.3777 18.6539 12.6609 18.7462 11.8734Z" fill="#7EC9EE"/>
<path d="M12.502 5.6223C12.502 5.6324 12.502 5.64249 12.502 5.65259C13.31 5.65259 14.118 5.64249 14.926 5.65259C15.3531 5.66268 15.4223 5.52134 15.2376 5.19828C14.5451 3.9464 13.8641 2.68443 13.1946 1.41236C12.9868 1.02872 12.8714 1.14987 12.6867 1.41236C11.8094 2.69453 10.8514 3.93631 9.89333 5.17809C9.81253 5.27904 9.63939 5.38 9.72019 5.52134C9.80099 5.67278 9.99722 5.60211 10.1357 5.60211C10.9322 5.6324 11.7171 5.6223 12.502 5.6223Z" fill="#7EC9EE"/>
<path d="M13.1353 10.8008C13.1007 10.821 13.0661 10.8311 13.043 10.8513C13.5278 12.5978 14.0126 14.3343 14.4974 16.0809C14.5782 16.3737 14.7513 16.303 14.9591 16.202C15.7786 15.8285 16.5981 15.4549 17.4292 15.1016C17.7524 14.9703 17.7755 14.8593 17.5216 14.6372C16.552 13.7992 15.6055 12.9411 14.6474 12.093C14.1395 11.6589 13.6432 11.2349 13.1353 10.8008Z" fill="#7EC9EE"/>
<path d="M9.19922 11.185C9.33773 11.1547 9.34928 11.0437 9.39545 10.9629C10.0649 9.73121 10.7344 8.49952 11.3923 7.26784C11.9233 6.27845 11.9233 6.27845 10.6536 6.25826C9.26848 6.23807 9.26848 6.23807 9.2223 7.44956C9.2223 7.52023 9.21076 7.58081 9.21076 7.65148C9.19922 8.82259 9.19922 9.9937 9.19922 11.185Z" fill="#7EC9EE"/>
<path d="M10.2617 10.8829C10.4118 10.8425 10.481 10.8425 10.5157 10.8122C12.0047 9.40888 13.4822 8.00557 14.9712 6.59216C15.2136 6.35996 15.0289 6.31957 14.7865 6.31957C14.244 6.31957 13.713 6.32967 13.1705 6.29938C12.8473 6.27919 12.6857 6.38015 12.5472 6.63254C11.8085 8.02576 11.0582 9.41898 10.2617 10.8829Z" fill="#7EC9EE"/>
<path d="M4.21468 25.3599C3.52212 25.4003 2.82955 25.4104 2.14853 25.4911C1.60601 25.5517 1.39824 25.4003 1.24819 24.9359C0.567163 22.9268 0.151622 20.8976 0.0246513 18.8077C-0.0215199 18.101 0.105451 17.5357 0.497906 16.9501C1.0635 16.1122 1.66373 15.2843 2.09081 14.3858C2.24087 14.0728 2.4371 14.1132 2.72566 14.2343C4.20314 14.8805 5.69216 15.5064 7.18118 16.1324C7.37741 16.2131 7.45821 16.3545 7.53901 16.5059C8.38163 17.9092 9.22426 19.3024 10.0669 20.7057C10.1131 20.7764 10.1361 20.8774 10.2054 20.9278C10.8056 21.3216 10.4709 21.6446 10.1361 22.0081C9.24734 22.9571 8.38163 23.9162 7.51592 24.8955C7.28507 25.158 7.01958 25.2791 6.65021 25.2892C5.81913 25.2791 5.02268 25.3296 4.21468 25.3599Z" fill="#7EC9EE"/>
<path d="M6.54335 16.7572C6.55489 16.5351 6.34712 16.5149 6.20861 16.4543C5.15821 16 4.10782 15.5558 3.05742 15.0914C2.73423 14.95 2.58417 15.0207 2.42257 15.2731C1.92623 16.0707 1.41835 16.8581 0.898922 17.6456C0.714238 17.9182 0.748866 18.0595 1.10669 18.1706C2.26097 18.534 3.41525 18.9177 4.55799 19.3114C4.89273 19.4225 5.04278 19.3417 5.1813 19.0792C5.5853 18.3725 6.01238 17.6759 6.41638 16.9793C6.46255 16.8985 6.49718 16.8177 6.54335 16.7572Z" fill="#7EC9EE"/>
<path d="M0.82031 19.1705C0.866481 19.7358 0.94728 20.3416 0.970366 20.9372C0.981909 21.2704 1.14351 21.4016 1.51288 21.4521C2.54019 21.5733 3.56749 21.7247 4.5948 21.866C5.51823 21.9973 5.51823 21.9973 5.21811 21.1896C5.11423 20.917 5.01034 20.6445 4.918 20.3719C4.84874 20.1599 4.71023 20.0286 4.46783 19.9579C3.38281 19.6046 2.30933 19.2512 1.22431 18.8878C0.935738 18.7969 0.774139 18.807 0.82031 19.1705Z" fill="#7EC9EE"/>
<path d="M5.94408 20.4531C5.64396 20.4834 5.79402 20.6651 5.84019 20.7762C6.20956 21.7858 6.59047 22.7953 6.9483 23.8049C7.05218 24.1078 7.16761 24.1684 7.42155 23.8857C8.01024 23.2194 8.59892 22.553 9.22223 21.9069C9.47617 21.6343 9.3492 21.5536 9.04909 21.4627C8.09104 21.1598 7.14453 20.8368 6.18647 20.5238C6.11722 20.5036 6.04796 20.4834 5.94408 20.4531Z" fill="#7EC9EE"/>
<path d="M9.10744 20.7982C9.14207 20.7679 9.1767 20.7276 9.21133 20.6973C8.57647 19.6372 7.93008 18.5671 7.29522 17.507C7.1798 17.3152 7.06437 17.295 6.9374 17.507C6.55649 18.143 6.18712 18.7892 5.8062 19.4252C5.70232 19.5968 5.73695 19.7079 5.95626 19.7786C7.00665 20.1016 8.05705 20.455 9.10744 20.7982Z" fill="#7EC9EE"/>
<path d="M1.23438 22.3125C1.39597 22.8476 1.52294 23.2615 1.63837 23.6754C1.9962 24.8566 1.9962 24.8566 3.41596 24.7658C4.16624 24.7153 4.91653 24.685 5.66681 24.6446C5.67835 24.6042 5.67835 24.5639 5.68989 24.5235C4.25859 23.8168 2.83882 23.1101 1.23438 22.3125Z" fill="#7EC9EE"/>
<path d="M6.10589 23.9757C6.14052 23.9455 6.17515 23.9152 6.22132 23.8849C6.02509 23.4912 6.08281 22.8753 5.66726 22.734C4.85927 22.4513 3.97047 22.3705 3.05859 22.4816C4.07436 22.9763 5.09013 23.4811 6.10589 23.9757Z" fill="#7EC9EE"/>
<path d="M25.5897 31.8125C25.4973 31.9236 25.4281 32.0346 25.3357 32.1053C23.5697 33.4178 21.7921 34.7201 20.026 36.0427C19.749 36.2547 19.6105 36.2446 19.4258 35.9518C18.6524 34.6898 17.8675 33.4379 17.0595 32.1962C16.8749 31.9135 16.9557 31.752 17.175 31.5399C18.2946 30.4496 19.3912 29.3492 20.5108 28.2588C21.3073 27.4814 21.3073 27.4814 22.0922 28.2588C23.1541 29.3189 24.2161 30.389 25.278 31.4592C25.3703 31.5601 25.4742 31.6813 25.5897 31.8125Z" fill="#253254"/>
<path d="M15.8038 31.5679C15.85 31.7698 15.6768 31.8102 15.5383 31.8607C14.4649 32.2746 13.3914 32.6885 12.3294 33.1125C12.0986 33.2034 11.937 33.163 11.7754 33.0116C10.5288 31.8506 9.2706 30.6895 8.01243 29.5386C7.80466 29.3468 7.80466 29.2257 8.03552 29.054C9.32831 28.0545 10.6211 27.045 11.9024 26.0354C12.1101 25.8739 12.2371 25.8739 12.3872 26.1061C13.4953 27.8728 14.6034 29.6396 15.723 31.4063C15.7576 31.4568 15.7807 31.5174 15.8038 31.5679Z" fill="#253254"/>
<path d="M16.0567 35.2148C16.0567 35.9922 16.0452 36.7594 16.0567 37.5368C16.0683 37.8296 15.9759 37.9608 15.6065 37.9709C14.2099 38.0214 12.8016 38.0921 11.405 38.1729C11.0702 38.193 10.8278 38.0921 10.597 37.8801C9.86978 37.1835 9.14258 36.497 8.3923 35.8205C8.08064 35.5379 8.17299 35.4369 8.53081 35.3057C10.8394 34.4172 13.1364 33.5288 15.4334 32.6202C15.8374 32.4586 15.9297 32.5495 15.9182 32.9029C15.8951 33.6802 15.9182 34.4475 15.9182 35.2249C15.9644 35.2148 16.0105 35.2148 16.0567 35.2148Z" fill="#253254"/>
<path d="M28.0848 38.2335C27.3807 38.2638 26.665 38.2739 25.9609 38.3244C25.5107 38.3547 25.453 38.2032 25.5107 37.86C25.6954 36.9312 25.8339 36.0023 26.0071 35.0735C26.1456 34.2861 26.1225 33.4885 26.3995 32.7212C26.5034 32.4284 26.5727 32.3275 26.9305 32.4486C28.5234 32.9736 30.1279 33.4885 31.7323 34.0034C31.9632 34.0841 32.1248 34.1447 32.0209 34.4375C31.6169 35.5379 31.2475 36.6384 30.8666 37.7489C30.7743 38.0215 30.6358 38.1628 30.2664 38.1628C29.5392 38.1628 28.812 38.2133 28.0848 38.2436C28.0848 38.2436 28.0848 38.2436 28.0848 38.2335Z" fill="#253254"/>
<path d="M13.5283 25.9972C15.2482 26.29 16.9334 26.5626 18.6071 26.8453C19.115 26.926 19.6229 27.0371 20.1308 27.0977C20.5348 27.1481 20.5232 27.2592 20.2808 27.4914C19.3228 28.4303 18.3763 29.3793 17.4182 30.3081C16.4717 31.2369 16.4717 31.2369 15.7791 30.1365C14.9942 28.8846 14.1978 27.6428 13.4244 26.391C13.3552 26.2799 13.2051 26.1688 13.309 26.0275C13.3436 25.9871 13.4821 25.9972 13.5283 25.9972Z" fill="#253254"/>
<path d="M13.3438 25.1894C14.5442 24.6341 15.7562 24.089 16.9566 23.5337C17.5107 23.2813 18.0763 23.0289 18.6188 22.7563C18.9074 22.615 19.0228 22.7159 19.1267 22.9481C19.5884 24.0183 20.0732 25.0783 20.5349 26.1485C20.6157 26.3403 20.7196 26.5422 20.3156 26.4716C17.9955 26.0879 15.6754 25.6942 13.3553 25.3005C13.3553 25.2702 13.3553 25.2298 13.3438 25.1894Z" fill="#253254"/>
<path d="M25.6134 33.0629C25.3363 34.6883 25.0478 36.3137 24.7708 37.9492C24.7246 38.2016 24.5514 38.1814 24.3552 38.1108C23.1432 37.6969 21.9197 37.2728 20.7077 36.869C20.2806 36.7277 20.4422 36.5964 20.6731 36.4349C21.5503 35.7787 22.4276 35.1325 23.3048 34.4763C23.9743 33.9715 24.6207 33.4566 25.2786 32.9518C25.3594 32.8913 25.4402 32.7802 25.5672 32.8509C25.6365 32.8812 25.6134 32.972 25.6134 33.0629Z" fill="#253254"/>
<path d="M7.7209 30.2148C8.65586 31.073 9.59083 31.9311 10.5258 32.7994C11.2992 33.5162 11.2876 33.5263 10.2719 33.92C9.60237 34.1825 8.93289 34.4349 8.27495 34.6974C8.07872 34.7781 7.85941 34.8791 7.83632 34.5459C7.75553 33.1224 7.68627 31.6989 7.60547 30.2754C7.6401 30.2451 7.67473 30.235 7.7209 30.2148Z" fill="#253254"/>
<path d="M13.3789 24.3024C14.0253 23.2928 14.6832 22.2933 15.3296 21.2837C15.4682 21.0717 15.6067 21.0515 15.8491 21.1525C16.5416 21.4453 17.2342 21.728 17.9383 22.0106C18.123 22.0914 18.3423 22.1924 18.0191 22.3337C16.507 23.0202 14.9949 23.6966 13.4828 24.3831C13.4366 24.3529 13.4135 24.3327 13.3789 24.3024Z" fill="#253254"/>
<path d="M16.793 33.1133C17.5202 34.2743 18.2127 35.3747 18.9168 36.4752C19.0207 36.6367 19.0207 36.7478 18.813 36.8386C18.2589 37.0708 17.7049 37.303 17.1508 37.5453C16.9084 37.6564 16.793 37.5958 16.793 37.3535C16.793 35.9704 16.793 34.5873 16.793 33.1133Z" fill="#253254"/>
<path d="M18.6749 21.6567C17.9823 21.2832 17.1974 21.051 16.4818 20.6875C16.1586 20.526 16.5049 20.425 16.6318 20.3644C17.5206 19.9303 18.4094 19.4962 19.3098 19.1025C19.6445 18.951 20.0139 18.4967 20.314 18.7289C20.5218 18.8905 20.1062 19.3448 19.9677 19.6577C19.7022 20.2332 19.4136 20.7986 19.1366 21.3639C19.0558 21.5457 18.975 21.7274 18.6749 21.6567Z" fill="#253254"/>
<path d="M24.471 15.5466C24.3902 15.1528 24.4941 14.9004 24.5518 14.638C24.875 12.8813 25.2213 11.1246 25.533 9.36796C25.6022 8.96413 25.7869 8.65116 26.1332 8.37857C26.7334 7.88388 27.3106 7.369 27.8877 6.84402C28.1647 6.60172 28.2686 6.6522 28.361 6.96517C28.5341 7.57091 28.7303 8.16656 28.9266 8.76221C29.0074 9.01461 28.9843 9.25691 28.8804 9.49921C28.2571 10.9126 27.6338 12.326 27.0335 13.7394C26.9181 14.0019 26.745 14.2038 26.4795 14.3553C25.81 14.7187 25.1751 15.1125 24.471 15.5466Z" fill="#253254"/>
<path d="M22.6719 10.3497C23.0643 8.47186 23.4222 6.57385 23.8723 4.70613C24.0339 4.02971 24.8188 3.67636 25.2228 3.12109C25.4768 3.23215 25.3844 3.38358 25.3729 3.50473C25.2575 5.04939 25.1305 6.59404 25.0035 8.1387C24.992 8.31032 24.9804 8.48195 24.8304 8.6132C24.1378 9.21894 23.4452 9.8146 22.7527 10.4102C22.7296 10.38 22.695 10.3699 22.6719 10.3497Z" fill="#253254"/>
<path d="M24.7257 9.7536C24.4372 11.2882 24.1486 12.8227 23.86 14.3573C23.6638 14.3876 23.6754 14.2563 23.6292 14.1756C23.2944 13.4285 22.9597 12.6713 22.625 11.9242C22.5326 11.7223 22.4864 11.5507 22.6942 11.379C23.3406 10.8238 23.9639 10.2584 24.5988 9.70312C24.6334 9.71322 24.6796 9.73341 24.7257 9.7536Z" fill="#253254"/>
<path d="M25.3008 15.8283C26.709 14.9802 27.9903 14.2029 29.3523 13.375C29.3292 13.7284 29.133 13.9404 29.006 14.1625C28.6597 14.8187 28.2904 15.4547 27.9441 16.111C27.8056 16.3734 27.644 16.4542 27.3208 16.3533C26.709 16.1816 26.0741 16.0302 25.3008 15.8283Z" fill="#253254"/>
<path d="M28.0273 13.2171C28.4429 12.258 28.87 11.2989 29.2855 10.3398C29.3317 10.3398 29.3779 10.3398 29.4125 10.3398C29.5972 10.9052 29.7818 11.4807 29.955 12.046C29.9896 12.1571 29.9319 12.2379 29.828 12.2984C29.274 12.6417 28.7084 12.9748 28.1428 13.3181C28.1081 13.2878 28.062 13.2474 28.0273 13.2171Z" fill="#253254"/>
<path d="M25.7734 7.63107C25.8196 7.03542 25.8773 6.42967 25.9235 5.83402C25.935 5.59172 26.062 5.54124 26.2929 5.63211C26.7199 5.80373 27.401 5.77345 27.551 6.1167C27.6665 6.37919 27.0201 6.66188 26.743 6.94456C26.4775 7.20705 26.2005 7.45944 25.935 7.71184C25.8773 7.68155 25.8196 7.66136 25.7734 7.63107Z" fill="#253254"/>
<path d="M35.0437 20.2025C33.9818 19.5059 33.0699 18.9001 32.1465 18.3045C31.9156 18.153 31.9156 18.042 32.1119 17.8703C32.7352 17.305 33.3469 16.7396 33.9587 16.1541C34.1896 15.932 34.2819 16.0531 34.3165 16.255C34.5474 17.5271 34.7782 18.7992 35.0437 20.2025Z" fill="#253254"/>
<path d="M31.1759 21.5648C31.2913 20.7269 31.4067 19.8788 31.5221 19.0308C31.5452 18.839 31.6606 18.8087 31.8338 18.9197C32.7226 19.5053 33.6114 20.0908 34.5002 20.6764C34.6964 20.8076 34.6156 20.8682 34.4425 20.9591C34.1193 21.1307 33.7614 21.1408 33.4152 21.2317C32.7803 21.4134 32.1339 21.5951 31.499 21.7869C31.2797 21.8475 31.1181 21.8576 31.1759 21.5648Z" fill="#253254"/>
<path d="M33.1386 24.625C33.0693 24.5139 33.0347 24.4332 32.977 24.3726C32.5038 23.8476 32.0305 23.3125 31.5457 22.7976C31.3495 22.5957 31.3956 22.4948 31.6727 22.414C32.5845 22.1515 33.4849 21.8789 34.3968 21.6164C34.6045 21.5559 34.8239 21.5458 34.6853 21.8385C34.2467 22.6967 33.7965 23.5447 33.3464 24.4029C33.3117 24.4534 33.254 24.4937 33.1386 24.625Z" fill="#253254"/>
<path d="M18.7462 11.873C18.6539 12.6605 18.5731 13.3773 18.4807 14.0941C18.4692 14.1849 18.4923 14.3162 18.3653 14.3566C18.2268 14.3969 18.1575 14.2859 18.0883 14.2253C16.4146 12.7412 14.7524 11.2572 13.0787 9.77308C12.9055 9.62165 12.9171 9.51059 13.0787 9.34906C13.9559 8.5313 14.8332 7.70345 15.6874 6.8655C15.9298 6.63329 16.0452 6.71406 16.1722 6.94626C17.0032 8.48082 17.8343 10.0154 18.6654 11.5499C18.7347 11.6711 18.7577 11.8023 18.7462 11.873Z" fill="#253254"/>
<path d="M12.5018 5.62164C11.7169 5.62164 10.932 5.62164 10.1355 5.62164C9.99699 5.62164 9.80076 5.69231 9.71996 5.54088C9.65071 5.39953 9.8123 5.29858 9.8931 5.19762C10.8512 3.95584 11.8092 2.72415 12.6865 1.43189C12.8596 1.1694 12.9866 1.04825 13.1943 1.43189C13.8638 2.69386 14.5448 3.95584 15.2374 5.21781C15.4106 5.54088 15.3528 5.67212 14.9258 5.67212C14.1178 5.66202 13.3098 5.67212 12.5018 5.67212C12.5018 5.64183 12.5018 5.63174 12.5018 5.62164Z" fill="#253254"/>
<path d="M13.1351 10.8008C13.6315 11.2349 14.1394 11.6589 14.6357 12.093C15.5938 12.9411 16.5518 13.7992 17.5099 14.6372C17.7638 14.8593 17.7407 14.9703 17.4175 15.1016C16.5864 15.4549 15.7669 15.8285 14.9474 16.202C14.7396 16.2929 14.5664 16.3737 14.4856 16.0809C14.0008 14.3343 13.516 12.5978 13.0312 10.8513C13.0774 10.8311 13.112 10.821 13.1351 10.8008Z" fill="#253254"/>
<path d="M13.5613 15.8414C12.5109 15.2861 11.5875 14.5693 10.5948 13.9333C10.2255 13.7011 9.8561 13.4386 9.49827 13.1963C9.33667 13.0852 9.25587 12.9843 9.42901 12.8227C10.2947 11.9949 11.1604 11.167 12.0146 10.3594C12.2224 10.4502 12.2108 10.5815 12.2455 10.6925C12.6956 12.2978 13.1458 13.8929 13.5844 15.4981C13.6075 15.5991 13.6075 15.7 13.619 15.801C13.596 15.8111 13.5729 15.8313 13.5613 15.8414Z" fill="#253254"/>
<path d="M9.19922 11.1844C9.19922 9.99312 9.19922 8.82201 9.19922 7.6509C9.19922 7.58023 9.21076 7.51965 9.21076 7.44898C9.25693 6.22739 9.25693 6.22739 10.6421 6.25768C11.9118 6.27787 11.9118 6.27787 11.3808 7.26726C10.7344 8.49894 10.0649 9.73063 9.40699 10.9623C9.36082 11.0532 9.33773 11.1642 9.19922 11.1844Z" fill="#253254"/>
<path d="M10.2617 10.8834C11.0582 9.4195 11.8085 8.02629 12.5587 6.62297C12.6857 6.37058 12.8588 6.27972 13.182 6.28981C13.713 6.3201 14.2555 6.29991 14.798 6.31C15.0404 6.31 15.2136 6.36048 14.9827 6.58259C13.5052 7.996 12.0162 9.39931 10.5272 10.8026C10.481 10.843 10.4118 10.843 10.2617 10.8834Z" fill="#253254"/>
<path d="M13.6087 15.8008C13.6202 15.8109 13.6318 15.821 13.6433 15.8412C13.6202 15.8412 13.5856 15.8412 13.5625 15.8412C13.574 15.8311 13.5971 15.8109 13.6087 15.8008Z" fill="#253254"/>
<path d="M6.54298 16.76C6.50835 16.8206 6.46218 16.9014 6.41601 16.972C6.00046 17.6687 5.57338 18.3653 5.18093 19.072C5.03087 19.3244 4.88081 19.4152 4.55762 19.3042C3.41488 18.9104 2.2606 18.5369 1.10632 18.1633C0.760037 18.0523 0.725409 17.911 0.89855 17.6384C1.41798 16.8509 1.92586 16.0634 2.4222 15.2659C2.5838 15.0135 2.73385 14.9327 3.05705 15.0841C4.0959 15.5485 5.15784 15.9928 6.20824 16.4471C6.34675 16.5177 6.54298 16.5379 6.54298 16.76Z" fill="#253254"/>
<path d="M0.819931 19.1723C0.77376 18.8189 0.946902 18.7988 1.22393 18.8896C2.29741 19.2531 3.38243 19.6064 4.46745 19.9598C4.70985 20.0405 4.84837 20.1617 4.91762 20.3737C5.00996 20.6463 5.11385 20.9189 5.21773 21.1915C5.51785 21.9991 5.51785 21.9991 4.59442 21.8679C3.56712 21.7265 2.53981 21.5751 1.5125 21.4539C1.14313 21.4136 0.98153 21.2823 0.969987 20.9391C0.946901 20.3333 0.866102 19.7276 0.819931 19.1723Z" fill="#253254"/>
<path d="M5.94327 20.4531C6.03561 20.4834 6.10487 20.5036 6.18567 20.5339C7.14372 20.8469 8.09023 21.1699 9.04828 21.4728C9.34839 21.5637 9.47536 21.6444 9.22142 21.917C8.60965 22.5631 8.00943 23.2295 7.42075 23.8958C7.1668 24.1785 7.06292 24.1179 6.94749 23.815C6.57812 22.8054 6.19721 21.7959 5.83938 20.7863C5.80475 20.6651 5.6547 20.4834 5.94327 20.4531Z" fill="#253254"/>
<path d="M9.10623 20.7989C8.05584 20.4557 7.00545 20.1023 5.95505 19.7591C5.73574 19.6884 5.71265 19.5773 5.805 19.4057C6.18591 18.7697 6.56682 18.1236 6.93619 17.4875C7.06316 17.2856 7.17859 17.2957 7.29402 17.4875C7.92887 18.5476 8.57527 19.6177 9.21012 20.6778C9.17549 20.7283 9.14086 20.7686 9.10623 20.7989Z" fill="#253254"/>
<path d="M1.23438 22.3125C2.83882 23.1101 4.27013 23.8168 5.68989 24.5235C5.67835 24.5639 5.67835 24.6042 5.66681 24.6446C4.91653 24.685 4.16624 24.7254 3.41596 24.7658C1.9962 24.8566 1.9962 24.8566 1.63837 23.6754C1.5114 23.2716 1.39597 22.8476 1.23438 22.3125Z" fill="#253254"/>
<path d="M6.10589 23.978C5.09013 23.4732 4.07436 22.9785 3.05859 22.4738C3.95893 22.3627 4.85927 22.4435 5.66726 22.7262C6.08281 22.8675 6.02509 23.4934 6.22132 23.8771C6.18669 23.9175 6.14052 23.9477 6.10589 23.978Z" fill="#253254"/>
</g>
<defs>
<clipPath id="clip0_707_44">
<rect width="41" height="39" fill="white"/>
</clipPath>
</defs>
</svg>
