<svg width="895" height="1144" viewBox="0 0 895 1144" fill="none" xmlns="http://www.w3.org/2000/svg">
<path d="M355 703.225L700 637.004L564.527 912.36L700 1144H355L445.805 1003.45L355 703.225Z" fill="#29395F"/>
<path d="M856.855 641.004L894.944 659.939L855.614 715.28L827.22 700.615L856.855 641.004Z" fill="#6F91DB"/>
<path d="M321.974 267.479L546.009 260.092L425.464 440.027L479.781 620.05L264.396 580.422L253.781 439.169L321.974 267.479Z" fill="#29395F"/>
<rect x="222" y="713.926" width="34.5296" height="36.1344" transform="rotate(-48.6615 222 713.926)" fill="#355BAC"/>
<path d="M261.945 1023L276.55 1037.48L268.039 1056L250.086 1046.86L261.945 1023Z" fill="#8BABDE"/>
<path d="M234.93 177.52L92.4297 9.51955L10.9304 91.9097L234.93 177.52Z" fill="#8FCDF0"/>
<path d="M324.633 960.965L291.633 925.465L278.735 887.446L255.126 888.836L257.502 912.09L266.57 936.403L280.519 956.273L298.953 973.298L324.633 960.965Z" fill="#3169BD"/>
<path d="M365.739 1008.55L370.633 984.465L324.633 960.965L298.953 973.298L335.802 996.019L365.739 1008.55Z" fill="#517BD1"/>
<path d="M502.486 1024.47L479.633 1004.96L420.133 997.465L370.633 984.465L365.739 1008.55L408.779 1021.55L453.683 1027.06L502.486 1024.47Z" fill="#949FE9"/>
<path d="M563.148 993.167L559.133 989.465L555.71 985.097L509.633 1001.46L479.633 1004.96L502.486 1024.47L526.082 1020.72L545.136 1012.45L555.921 1003.25L563.148 993.167Z" fill="#8ECCEE"/>
</svg>
