<svg width="112" height="83" viewBox="0 0 112 83" fill="none" xmlns="http://www.w3.org/2000/svg">
<rect width="111.804" height="83" fill="#253254"/>
<path d="M55.9724 36.5312L65.4774 39.1827L69.2943 47.6874L83.2899 54.6912V63.8962L76.6289 69.0491H64.1302L53.9516 66.2475L47.7397 68.7489L35.1661 69.0491L29.3284 63.8962L28.3555 54.6912L38.6837 48.5378L44.6711 41.4339L55.9724 36.5312Z" fill="#CAF4FF"/>
<path d="M31.7109 19.4737L40.3927 10.4688L49.4486 14.4709L53.565 27.8783L52.3675 33.3313L43.0122 36.1828L31.7109 30.5297V19.4737Z" fill="#CAF4FF"/>
<path d="M66.1453 12.418L76.6233 15.5697L80.3654 22.1233L79.5422 31.4284L70.0371 36.4811L62.029 34.4801L57.6133 28.2767L60.9064 16.7704L66.1453 12.418Z" fill="#CAF4FF"/>
<path d="M19.5199 31.6797L29.0249 34.8814L35.3117 42.9358L29.0249 48.4389L18.2476 48.8391L15.9275 43.4862L15.2539 37.4829L19.5199 31.6797Z" fill="#CAF4FF"/>
<path d="M82.5349 32.9326L95.6323 31.832V40.0365L91.5908 45.7396L86.8757 49.2416H80.3644L74.6016 44.3389L75.799 37.7353L82.5349 32.9326Z" fill="#CAF4FF"/>
</svg>
