<svg width="855" height="832" viewBox="0 0 855 832" fill="none" xmlns="http://www.w3.org/2000/svg">
<path d="M854.777 263.295L537.999 124.047L419.983 101.944L361.596 124.047L226.189 71L55.9984 138.414V747.348L238.612 778.292L581.478 713.089H811.298L829.932 528.53L854.777 263.295Z" fill="#2F477D"/>
<path d="M410.157 750.263L228.151 776.363L78.139 747.934L410.157 750.263Z" fill="#2F4373"/>
<path d="M178.911 158.635L461.105 142.227L555.893 160.676L591.31 197.059L709.685 195.386L811.886 303.901L600.339 806.247L454.799 775.012L224.376 614.647L54.7429 543.211L105.106 385.166L178.911 158.635Z" fill="#253254"/>
<g clip-path="url(#clip0_749_83)">
<path d="M533.295 657.768C533.295 657.398 533.295 657.028 533.295 656.782C545.345 656.782 557.394 656.782 569.444 656.782C572.758 656.782 575.921 656.536 578.33 654.318C590.982 642.119 603.634 630.043 616.286 617.844C618.094 616.242 618.847 614.517 618.847 612.299C618.696 602.442 618.546 592.584 618.546 582.727C618.546 571.021 618.245 559.315 619.148 547.732C619.45 542.434 618.245 538.86 612.973 535.656C587.368 520.131 562.064 504.358 536.458 488.833C532.392 486.368 529.982 483.534 528.475 479.591C520.944 459.753 513.263 440.037 505.581 420.322C504.678 418.104 504.678 415.517 500.912 414.654C482.988 410.465 466.571 403.318 449.4 397.526C447.442 396.91 445.936 396.541 443.827 397.526C419.276 408.493 394.575 419.46 369.873 430.426C367.614 431.412 365.957 432.644 364.602 434.616C353.606 451.004 342.159 467.146 331.164 483.411C328.302 487.601 324.687 491.051 320.319 494.254C301.341 507.932 282.514 521.856 263.385 535.533C260.072 537.874 258.716 540.216 259.017 543.912C260.674 567.201 262.03 590.613 263.385 614.025C263.536 616.859 264.59 618.953 267 621.048C277.393 629.92 288.388 638.545 297.877 648.033C305.408 655.55 313.692 657.768 325.441 657.028C358.276 655.057 391.864 656.536 420.632 639.778C424.397 637.56 428.314 637.806 432.682 639.285C451.057 645.322 469.734 650.867 487.959 657.028C493.23 658.877 498.352 659.37 503.924 659.123C513.715 658.507 523.505 658.137 533.295 657.768Z" fill="#253254"/>
<path d="M602.126 313.492C602.729 302.279 603.482 290.942 604.235 279.729C604.386 278.127 604.084 276.402 603.482 274.924C596.102 258.659 587.516 242.64 582.094 225.759C581.492 224.034 580.136 223.541 578.479 222.925C557.091 215.285 535.703 207.522 514.466 199.759C511.905 198.897 510.249 199.39 507.688 200.252C502.416 201.977 502.416 206.413 499.404 209.124C491.12 216.517 483.137 224.28 475.154 231.92C473.497 233.398 471.69 234.754 471.389 237.095C467.322 262.109 460.695 286.753 455.423 311.643C453.766 319.776 451.658 327.169 457.682 335.794C466.117 347.993 471.238 361.794 476.962 375.225C478.92 379.907 482.836 382.249 487.505 382.372C496.241 382.741 503.923 385.699 512.207 387.424C520.189 389.026 528.473 393.708 535.553 392.476C542.782 391.244 548.506 384.59 554.983 380.277C567.635 371.775 579.684 362.78 593.089 355.14C599.114 351.69 600.771 348.24 600.771 342.818C600.62 333.084 601.674 323.226 602.126 313.492Z" fill="#253254"/>
<path d="M702.59 390.258C703.343 390.258 704.247 390.258 705 390.258C705 380.031 705 369.804 705 359.577C705 357.359 705.151 353.785 701.385 355.017C695.059 357.112 688.583 355.88 682.256 356.743C666.14 358.961 650.175 362.534 633.908 363.889C623.515 364.752 614.026 366.107 606.495 373.747C596.855 383.605 585.559 392.476 575.015 401.841C573.811 402.827 572.304 403.689 572.154 405.291C572.003 421.926 567.635 438.314 565.828 454.703C565.677 456.551 565.978 458.276 567.485 459.878C578.179 470.721 588.872 481.565 599.416 492.531C601.675 494.996 604.386 495.489 607.851 495.489C618.846 495.365 629.992 495.365 640.987 495.612C643.849 495.612 645.505 495.242 647.463 493.517C664.333 477.868 683.16 463.575 691.444 442.874C694.005 436.343 696.565 429.566 701.837 423.898C702.59 423.035 702.59 421.556 702.59 420.324C702.59 410.343 702.59 400.239 702.59 390.258Z" fill="#253254"/>
<path d="M278.445 301.664C278.445 313.37 278.596 325.076 278.295 336.782C278.144 342.45 277.391 347.872 286.428 349.597C287.934 349.967 289.29 351.322 290.645 352.184C311.582 365.123 332.668 378.184 353.604 391.245C355.562 392.478 357.069 394.326 360.683 392.478C377.703 383.729 395.627 376.459 414.153 370.175C418.672 368.696 419.576 366.848 419.877 363.644C421.232 351.938 422.739 340.355 424.245 328.649C424.546 325.815 424.245 322.981 423.492 320.147C414.906 286.755 406.321 253.485 398.188 220.092C397.133 215.903 395.326 213.315 390.958 210.974C374.992 202.349 359.328 193.6 343.663 184.605C339.296 182.14 336.886 182.387 334.174 186.084C318.661 209.126 300.285 230.689 282.512 252.499C281.458 253.855 279.801 254.964 280.102 256.812C282.361 271.845 278.897 286.755 278.445 301.664Z" fill="#253254"/>
<path d="M224.974 492.528C235.517 492.158 246.06 491.542 256.604 491.296C261.574 491.173 264.888 489.694 267.9 486.49C279.046 474.661 290.493 462.832 302.091 451.249C306.459 446.813 310.977 442.87 302.994 438.065C302.091 437.449 301.789 436.34 301.187 435.354C290.192 418.226 279.196 401.222 268.201 384.094C266.996 382.369 266.093 380.644 263.532 379.535C244.102 371.895 224.672 364.256 205.393 356.37C201.628 354.891 199.067 354.398 197.109 358.218C191.536 369.308 183.704 379.412 176.323 389.516C171.052 396.786 169.546 403.563 170.148 412.188C171.805 437.695 177.378 462.586 186.114 486.983C188.222 492.775 190.934 494.5 197.862 493.76C206.899 493.144 215.936 493.021 224.974 492.528Z" fill="#253254"/>
<path d="M533.295 657.768C523.505 658.138 513.715 658.507 503.924 658.877C498.352 659.124 493.23 658.507 487.959 656.782C469.583 650.621 451.057 644.953 432.682 639.039C428.314 637.56 424.397 637.314 420.632 639.531C391.864 656.289 358.276 654.811 325.441 656.782C313.542 657.522 305.408 655.304 297.877 647.787C288.388 638.299 277.544 629.674 267 620.802C264.59 618.707 263.536 616.613 263.385 613.778C262.03 590.367 260.674 567.078 259.017 543.666C258.716 539.969 260.072 537.628 263.385 535.287C282.514 521.61 301.191 507.809 320.319 494.008C324.687 490.805 328.302 487.354 331.164 483.165C342.31 466.9 353.606 450.635 364.602 434.37C365.957 432.398 367.614 431.166 369.873 430.18C394.575 419.214 419.126 408.37 443.827 397.28C445.936 396.295 447.593 396.664 449.4 397.28C466.571 403.072 482.988 410.219 500.912 414.408C504.828 415.271 504.828 417.981 505.581 420.076C513.263 439.791 520.944 459.507 528.475 479.345C529.982 483.288 532.392 486.122 536.458 488.587C562.064 504.112 587.368 519.885 612.973 535.41C618.245 538.614 619.45 542.187 619.148 547.486C618.395 559.192 618.696 570.898 618.546 582.48C618.546 592.338 618.696 602.196 618.847 612.053C618.847 614.271 618.094 615.996 616.286 617.598C603.634 629.674 590.832 641.873 578.33 654.071C575.921 656.413 572.758 656.536 569.444 656.536C557.394 656.536 545.345 656.536 533.295 656.536C533.295 657.029 533.295 657.398 533.295 657.768Z" fill="#93CEF0"/>
<path d="M504.223 586.545C504.374 585.56 504.675 584.327 503.319 583.711C501.663 582.849 500.608 584.204 499.554 584.943C490.969 591.104 482.534 597.512 473.798 603.55C462.501 611.559 450.904 619.568 439.457 627.454C436.595 629.426 434.336 631.028 439.909 632.753C455.874 637.682 471.689 642.857 487.504 647.909C490.215 648.772 492.475 649.141 492.927 645.938C496.843 626.222 500.458 606.384 504.223 586.545Z" fill="#93CEF0"/>
<path d="M602.127 313.489C601.525 323.347 600.621 333.204 600.47 343.062C600.47 348.484 598.814 351.811 592.789 355.384C579.384 363.024 567.334 372.019 554.682 380.521C548.206 384.834 542.482 391.488 535.252 392.72C528.173 393.952 519.889 389.27 511.906 387.668C503.773 385.943 495.941 382.985 487.205 382.616C482.535 382.493 478.619 380.028 476.661 375.469C470.938 362.161 465.817 348.361 457.382 336.039C451.357 327.413 453.466 320.02 455.273 311.764C460.394 286.874 467.022 262.23 471.239 237.216C471.691 234.875 473.498 233.642 475.005 232.041C482.987 224.401 490.82 216.638 499.254 209.245C502.417 206.534 502.267 202.098 507.538 200.373C510.099 199.51 511.756 198.894 514.316 199.88C535.704 207.643 556.941 215.283 578.329 223.046C579.986 223.662 581.342 224.155 581.944 225.88C587.367 242.761 595.952 258.779 603.332 275.044C603.935 276.523 604.236 278.248 604.085 279.85C603.633 290.94 602.88 302.153 602.127 313.489Z" fill="#93CEF0"/>
<path d="M702.588 390.256C702.588 400.36 702.588 410.341 702.588 420.445C702.588 421.678 702.588 423.156 701.835 424.019C696.413 429.687 694.003 436.464 691.443 442.995C683.158 463.696 664.331 477.989 647.462 493.638C645.654 495.363 643.847 495.856 640.985 495.733C629.99 495.487 618.844 495.487 607.849 495.61C604.385 495.61 601.824 495.117 599.414 492.652C588.871 481.686 578.177 470.842 567.483 459.999C565.826 458.397 565.525 456.795 565.826 454.824C567.784 438.312 572.001 422.047 572.152 405.412C572.152 403.811 573.809 402.948 575.014 401.962C585.557 392.721 596.854 383.849 606.493 373.868C613.874 366.228 623.513 364.873 633.906 364.01C650.323 362.655 666.138 358.958 682.255 356.864C688.581 356.001 695.057 357.11 701.383 355.139C704.998 353.906 704.998 357.48 704.998 359.698C704.998 369.925 704.998 380.152 704.998 390.38C704.245 390.256 703.341 390.256 702.588 390.256Z" fill="#93CEF0"/>
<path d="M278.445 301.665C278.896 286.756 282.361 271.846 280.101 256.813C279.8 254.965 281.457 253.732 282.511 252.5C300.284 230.567 318.66 209.127 334.475 186.085C337.035 182.388 339.596 182.018 343.964 184.606C359.478 193.601 375.293 202.473 391.258 210.975C395.626 213.316 397.434 215.904 398.488 220.093C406.622 253.486 415.207 286.879 423.792 320.148C424.545 322.982 424.847 325.816 424.545 328.65C423.039 340.233 421.533 351.939 420.177 363.645C419.876 366.972 418.822 368.697 414.454 370.176C395.928 376.337 377.853 383.607 360.984 392.479C357.369 394.327 356.013 392.479 353.905 391.246C332.667 378.185 311.581 365.124 290.645 352.185C289.289 351.323 287.934 349.968 286.427 349.598C277.541 347.873 278.143 342.451 278.294 336.783C278.595 325.077 278.445 313.371 278.445 301.665Z" fill="#93CEF0"/>
<path d="M346.98 376.334C347.281 376.334 347.733 376.334 348.034 376.334C347.883 376.211 347.733 376.088 347.582 375.842C347.431 374.609 347.582 373.377 347.13 372.145C341.407 352.553 335.532 333.084 329.658 313.492C329.206 312.137 329.508 310.535 326.646 309.426C315.5 319.407 304.204 329.511 292.907 339.492C290.799 341.463 291.702 342.695 293.811 344.051C298.631 347.008 303.3 350.088 308.12 353.046C321.224 360.809 333.273 369.557 346.98 376.334Z" fill="#93CEF0"/>
<path d="M414.604 327.909C414.755 327.046 414.454 325.444 413.55 323.965C402.705 305.236 391.861 286.506 381.016 267.777C379.359 264.943 377.853 263.834 374.69 266.791C363.394 277.019 352.097 287.123 340.65 297.103C338.542 298.952 338.391 300.307 340.65 302.279C362.49 320.392 384.179 338.505 406.019 356.619C407.073 357.481 407.977 358.837 409.634 358.221C411.291 357.728 410.989 356.126 411.14 355.017C412.345 346.268 413.399 337.52 414.604 327.909Z" fill="#93CEF0"/>
<path d="M333.12 251.635C333.12 251.758 333.12 251.882 333.12 252.005C343.663 252.005 354.206 251.882 364.75 252.005C370.323 252.128 371.226 250.403 368.817 246.46C359.779 231.181 350.893 215.778 342.157 200.252C339.446 195.57 337.94 197.049 335.53 200.252C324.083 215.901 311.581 231.057 299.08 246.214C298.025 247.446 295.766 248.678 296.821 250.403C297.875 252.251 300.435 251.389 302.243 251.389C312.636 251.758 322.878 251.635 333.12 251.635Z" fill="#93CEF0"/>
<path d="M341.404 314.848C340.952 315.094 340.5 315.217 340.199 315.464C346.525 336.781 352.851 357.975 359.177 379.292C360.232 382.865 362.491 382.003 365.202 380.771C375.896 376.211 386.59 371.652 397.435 367.34C401.652 365.738 401.953 364.382 398.64 361.671C385.988 351.444 373.637 340.97 361.135 330.62C354.508 325.321 348.031 320.146 341.404 314.848Z" fill="#93CEF0"/>
<path d="M290.043 319.528C291.85 319.159 292.001 317.803 292.604 316.818C301.339 301.785 310.075 286.752 318.661 271.719C325.589 259.643 325.589 259.643 309.021 259.397C290.947 259.15 290.947 259.15 290.344 273.937C290.344 274.799 290.194 275.539 290.194 276.401C290.043 290.695 290.043 304.988 290.043 319.528Z" fill="#93CEF0"/>
<path d="M303.902 315.832C305.86 315.339 306.764 315.339 307.216 314.969C326.646 297.842 345.925 280.714 365.355 263.463C368.518 260.629 366.108 260.136 362.945 260.136C355.866 260.136 348.938 260.26 341.858 259.89C337.641 259.644 335.532 260.876 333.725 263.956C324.085 280.961 314.295 297.965 303.902 315.832Z" fill="#93CEF0"/>
<path d="M224.976 492.53C215.939 493.022 206.902 493.146 198.015 494.131C190.936 494.871 188.225 493.022 186.267 487.354C177.38 462.833 171.958 438.066 170.301 412.56C169.699 403.934 171.356 397.034 176.477 389.887C183.857 379.66 191.689 369.556 197.262 358.589C199.22 354.769 201.781 355.262 205.546 356.741C224.826 364.627 244.255 372.267 263.685 379.906C266.246 380.892 267.3 382.617 268.355 384.465C279.35 401.593 290.345 418.597 301.34 435.725C301.943 436.588 302.244 437.82 303.148 438.436C310.98 443.241 306.612 447.184 302.244 451.62C290.646 463.203 279.35 474.909 268.053 486.861C265.041 490.065 261.577 491.544 256.757 491.667C245.912 491.544 235.52 492.16 224.976 492.53Z" fill="#93CEF0"/>
<path d="M255.403 387.544C255.553 384.833 252.842 384.587 251.035 383.847C237.328 378.303 223.622 372.881 209.916 367.213C205.698 365.488 203.74 366.35 201.632 369.431C195.155 379.165 188.528 388.776 181.75 398.387C179.34 401.714 179.792 403.439 184.461 404.795C199.523 409.231 214.585 413.913 229.496 418.719C233.864 420.074 235.822 419.088 237.63 415.885C242.901 407.259 248.474 398.757 253.746 390.255C254.348 389.269 254.8 388.283 255.403 387.544Z" fill="#93CEF0"/>
<path d="M180.696 416.996C181.298 423.897 182.352 431.29 182.654 438.56C182.804 442.626 184.913 444.228 189.733 444.844C203.138 446.323 216.543 448.171 229.948 449.896C241.998 451.498 241.998 451.498 238.082 441.64C236.726 438.313 235.37 434.986 234.166 431.659C233.262 429.072 231.454 427.47 228.291 426.607C214.133 422.295 200.126 417.982 185.967 413.546C182.202 412.437 180.093 412.56 180.696 416.996Z" fill="#93CEF0"/>
<path d="M247.567 432.645C243.651 433.014 245.609 435.232 246.211 436.588C251.031 448.91 256.002 461.232 260.671 473.554C262.026 477.25 263.533 477.99 266.846 474.539C274.528 466.407 282.209 458.274 290.343 450.388C293.657 447.061 292 446.076 288.084 444.967C275.582 441.27 263.231 437.327 250.73 433.507C249.826 433.261 248.923 433.014 247.567 432.645Z" fill="#93CEF0"/>
<path d="M288.838 436.836C289.29 436.466 289.742 435.973 290.193 435.603C281.909 422.665 273.475 409.604 265.191 396.666C263.684 394.325 262.178 394.078 260.521 396.666C255.551 404.429 250.731 412.315 245.761 420.078C244.405 422.172 244.857 423.528 247.719 424.39C261.425 428.333 275.132 432.646 288.838 436.836Z" fill="#93CEF0"/>
<path d="M186.117 455.316C188.226 461.847 189.883 466.899 191.389 471.951C196.058 486.368 196.058 486.368 214.584 485.259C224.375 484.643 234.165 484.273 243.955 483.78C244.106 483.287 244.106 482.795 244.256 482.302C225.579 473.676 207.053 465.051 186.117 455.316Z" fill="#93CEF0"/>
<path d="M249.678 475.646C250.129 475.277 250.581 474.907 251.184 474.537C248.623 469.732 249.376 462.215 243.954 460.49C233.411 457.04 221.813 456.054 209.914 457.41C223.169 463.448 236.423 469.609 249.678 475.646Z" fill="#93CEF0"/>
<path d="M347.579 375.84C347.73 375.963 347.88 376.086 348.031 376.333C347.73 376.333 347.278 376.333 346.977 376.333C347.127 376.209 347.428 375.963 347.579 375.84Z" fill="#253254"/>
<path d="M498.904 221.799L537.536 266.319L548.536 296.319L560.536 333.819L530.537 384.819L488.536 374.817L463.537 325.816L479.535 239.816L498.904 221.799Z" fill="#253254"/>
<path d="M603.962 487.601L577.464 451.604L584 406L618.461 381.102L628.961 430.102L624.461 450.102L603.962 487.601Z" fill="#253254"/>
<path d="M339.5 205L368.5 276.5L415 325.895L411 356.234L362.5 376L292 338.306V266.137L339.5 205Z" fill="#253254"/>
<path d="M205.283 372L260.788 393.447L293 445.396L254.345 481.617L198.345 484L181 418.23V404.885L205.283 372Z" fill="#253254"/>
<path d="M419.5 426L428.5 462.5L449.21 519.981L512.207 574.212L588 597.119L571.266 641.533H501.379L442.32 625.637L431 618.625L394.58 634.52L318.787 642L280.398 608.807L274 553.174L340.934 498.476L381.292 444.245L419.5 426Z" fill="#253254"/>
</g>
<defs>
<clipPath id="clip0_749_83">
<rect width="535" height="476" fill="white" transform="translate(170 183)"/>
</clipPath>
</defs>
</svg>
