<svg width="46" height="50" viewBox="0 0 46 50" fill="none" xmlns="http://www.w3.org/2000/svg">
<path d="M8.77513 43.5823C8.77513 43.3892 8.80102 43.1961 8.77513 43.0245C8.38688 40.2139 9.57752 37.6608 10.5352 35.0648C11.5447 32.3186 12.5282 29.5724 13.5118 26.8476C13.5895 26.6545 13.5895 26.4829 13.4859 26.3112C12.4247 24.4232 12.3471 22.4065 12.58 20.3897C12.7612 18.5875 13.3306 16.8926 14.4695 15.3479C15.5307 13.9104 17.1096 13.0307 19.1286 12.8162C21.484 12.5802 23.477 13.1809 24.9265 14.7471C26.0912 15.9915 26.4795 17.429 25.9618 18.9737C25.3147 20.9261 24.6159 22.8785 23.917 24.8094C23.244 26.6545 24.15 27.9633 26.4018 28.3923C26.7124 28.4567 26.9713 28.6069 27.3077 28.6069C29.0419 28.5425 30.4655 27.9203 31.6303 26.8905C33.1315 25.6032 33.9081 24.0156 34.3998 22.2992C35.254 19.2955 35.021 16.4206 33.0539 13.7173C32.4068 12.8162 31.5268 12.0653 30.6208 11.3358C26.5054 7.96742 18.9732 7.45251 13.8742 10.6493C8.69748 13.9318 7.4033 19.2955 10.0952 23.7152C10.4834 24.3589 10.4834 24.3589 9.86224 24.8952C8.56806 25.9894 7.248 27.0622 5.95383 28.1563C5.51381 28.5211 5.09967 28.9073 4.68553 29.2934C4.47846 29.4865 4.40081 29.4651 4.21963 29.2505C0.854768 25.1956 -0.646477 20.7545 0.259447 15.8199C0.854768 12.4944 2.51132 9.59798 5.07379 6.9805C6.96328 5.07103 9.24104 3.59065 11.8294 2.4321C18.9474 -0.743207 26.1948 -0.743207 33.4163 2.04591C35.9787 3.03283 38.3083 4.44884 40.2236 6.22959C44.1062 9.8769 46.151 14.1249 45.9957 19.0381C45.8921 22.2563 45.0639 25.3243 43.3555 28.2422C42.3979 29.8727 41.1554 31.2887 39.7318 32.6189C37.5576 34.6571 34.8916 35.9873 31.708 36.5881C28.0325 37.2961 24.5382 36.7812 21.2769 35.2364C20.8369 35.0219 20.7851 35.1077 20.6816 35.451C20.1898 37.5106 19.6721 39.5488 19.1803 41.6085C19.1544 41.7372 19.0768 41.8445 19.025 41.9517C17.5497 44.0543 16.1002 46.1569 14.5989 48.2165C13.4083 49.8686 10.7423 49.9973 9.34457 48.5169C8.87867 48.0234 8.6716 47.4656 8.69748 46.8434C8.77513 45.7921 8.74925 44.698 8.77513 43.5823ZM19.258 31.3531C20.0862 31.9538 20.8627 32.4902 21.6393 32.9837C23.3993 34.0564 25.3924 34.7 27.5925 34.8288C30.7761 35.0219 33.6233 34.3353 36.1082 32.6404C37.92 31.396 39.4471 30.0015 40.586 28.2851C42.4237 25.5603 43.3297 22.6425 43.5367 19.553C43.7697 16.2704 42.8379 13.2453 40.8707 10.4133C39.8095 8.88998 38.3859 7.58124 36.8329 6.42268C33.1315 3.69793 28.6537 2.49646 23.7876 2.17464C22.804 2.11028 21.7946 2.21755 20.811 2.32482C16.0484 2.81828 11.8035 4.25575 8.38688 7.13069C6.96328 8.33215 5.69499 9.64089 4.7373 11.1427C3.02899 13.8675 2.30425 16.721 2.58897 19.7675C2.79603 21.8916 3.49489 23.9083 4.65965 25.7963C4.76318 25.9465 4.81495 26.1396 5.07379 25.9036C5.74676 25.3458 6.41973 24.7879 7.0927 24.2301C7.29977 24.0585 7.42919 23.8439 7.29977 23.5221C5.17732 18.7806 6.23854 14.4682 10.147 10.6493C12.5541 8.28924 15.8413 7.08778 19.4133 6.48704C21.2769 6.18668 23.1405 6.2725 25.03 6.65868C29.7408 7.58124 33.3127 9.6838 35.6164 13.2238C37.5059 16.1417 37.7129 19.2312 36.9105 22.4065C36.3411 24.7665 35.0987 26.8691 33.0798 28.564C31.0867 30.2375 28.6537 30.9455 25.7806 30.4305C22.2863 29.7869 20.4486 27.2552 21.4063 24.3803C22.0275 22.5567 22.6487 20.7115 23.3476 18.9093C23.8652 17.5577 23.5805 16.4635 22.2863 15.4551C21.1734 14.5755 18.8956 14.5755 17.8603 15.262C16.8249 15.9271 16.1002 16.8068 15.686 17.8366C15.3754 18.609 15.1684 19.4243 15.0648 20.2395C14.7801 22.2563 14.8319 24.2516 16.1519 26.0538C16.2814 26.2254 16.2555 26.3756 16.1778 26.5472C15.919 27.2767 15.6602 27.9847 15.4013 28.7142C14.2883 31.8037 13.1495 34.8931 12.0365 37.9826C11.7517 38.7764 11.26 39.5488 11.2082 40.3856C11.1305 42.5525 11.1823 44.7194 11.1823 46.8649C11.1823 47.1653 11.2858 47.4013 11.6741 47.4871C12.0623 47.5729 12.3212 47.4227 12.5024 47.1438C12.8647 46.6074 13.2012 46.0711 13.5895 45.5347C14.4436 44.3332 15.2978 43.1532 16.1519 41.9517C16.4108 41.587 16.7214 41.2223 16.8249 40.8146C17.1873 39.6132 17.4461 38.4117 17.7567 37.2103C18.2744 35.3222 18.7662 33.3913 19.258 31.3531Z" fill="#253254"/>
</svg>
