<svg width="586" height="791" viewBox="0 0 586 791" fill="none" xmlns="http://www.w3.org/2000/svg">
<g clip-path="url(#clip0_801_1217)">
<rect width="586" height="791" fill="#DEEEFF"/>
<path d="M236.634 35H35V217.711L460.745 35L470 246.133L284.233 709H460.745V516.815L35 626.442V346.962L236.634 35Z" fill="#199098"/>
<path d="M45.8977 705.273L55.7415 736.216L56.1193 736.216L65.983 705.273L75.5284 705.273L61.4886 746L50.392 746L36.3324 705.273L45.8977 705.273ZM89.0412 705.273L89.0412 746L80.4304 746L80.4304 705.273L89.0412 705.273ZM96.1257 746L96.1257 705.273L112.194 705.273C115.27 705.273 117.895 705.823 120.069 706.923C122.256 708.01 123.92 709.555 125.06 711.557C126.214 713.545 126.79 715.885 126.79 718.577C126.79 721.281 126.207 723.608 125.04 725.557C123.874 727.492 122.183 728.977 119.969 730.011C117.769 731.045 115.104 731.562 111.975 731.562L101.217 731.562L101.217 724.642L110.583 724.642C112.227 724.642 113.593 724.417 114.68 723.966C115.767 723.515 116.576 722.839 117.106 721.937C117.649 721.036 117.921 719.916 117.921 718.577C117.921 717.224 117.649 716.084 117.106 715.156C116.576 714.228 115.76 713.526 114.66 713.048C113.573 712.558 112.201 712.312 110.543 712.312L104.737 712.312L104.737 746L96.1257 746ZM118.12 727.466L128.242 746L118.737 746L108.833 727.466L118.12 727.466ZM131.325 712.372L131.325 705.273L164.773 705.273L164.773 712.372L152.305 712.372L152.305 746L143.793 746L143.793 712.372L131.325 712.372ZM195.438 705.273L204.049 705.273L204.049 731.722C204.049 734.691 203.34 737.29 201.921 739.517C200.516 741.744 198.547 743.481 196.015 744.727C193.483 745.96 190.533 746.577 187.165 746.577C183.785 746.577 180.828 745.96 178.296 744.727C175.764 743.481 173.795 741.744 172.39 739.517C170.985 737.29 170.282 734.691 170.282 731.722L170.282 705.273L178.893 705.273L178.893 730.986C178.893 732.537 179.231 733.916 179.907 735.122C180.596 736.329 181.564 737.277 182.81 737.966C184.057 738.655 185.508 739 187.165 739C188.836 739 190.288 738.655 191.521 737.966C192.767 737.277 193.728 736.329 194.404 735.122C195.094 733.916 195.438 732.537 195.438 730.986L195.438 705.273ZM218.153 746L208.926 746L222.986 705.273L234.082 705.273L248.122 746L238.895 746L228.693 714.58L228.375 714.58L218.153 746ZM217.577 729.991L239.372 729.991L239.372 736.713L217.577 736.713L217.577 729.991ZM253.024 746L253.024 705.273L261.635 705.273L261.635 738.901L279.095 738.901L279.095 746L253.024 746ZM297.759 746L297.759 705.273L314.065 705.273C317.062 705.273 319.561 705.717 321.563 706.605C323.564 707.493 325.069 708.726 326.077 710.304C327.084 711.868 327.588 713.671 327.588 715.713C327.588 717.304 327.27 718.703 326.634 719.909C325.997 721.102 325.122 722.083 324.009 722.852C322.908 723.608 321.649 724.145 320.23 724.463L320.23 724.861C321.781 724.927 323.233 725.365 324.585 726.173C325.951 726.982 327.058 728.116 327.906 729.574C328.755 731.019 329.179 732.742 329.179 734.744C329.179 736.905 328.642 738.834 327.568 740.531C326.508 742.215 324.937 743.547 322.855 744.528C320.774 745.509 318.208 746 315.159 746L297.759 746ZM306.369 738.96L313.389 738.96C315.789 738.96 317.539 738.503 318.639 737.588C319.74 736.66 320.29 735.427 320.29 733.889C320.29 732.762 320.018 731.768 319.474 730.906C318.931 730.044 318.155 729.368 317.148 728.878C316.153 728.387 314.967 728.142 313.588 728.142L306.369 728.142L306.369 738.96ZM306.369 722.315L312.753 722.315C313.933 722.315 314.98 722.11 315.895 721.699C316.823 721.275 317.552 720.678 318.082 719.909C318.626 719.14 318.898 718.219 318.898 717.145C318.898 715.673 318.374 714.487 317.327 713.585C316.293 712.684 314.821 712.233 312.912 712.233L306.369 712.233L306.369 722.315ZM334.782 746L334.782 705.273L362.225 705.273L362.225 712.372L343.393 712.372L343.393 722.077L360.813 722.077L360.813 729.176L343.393 729.176L343.393 738.901L362.305 738.901L362.305 746L334.782 746ZM376.091 746L366.864 746L380.923 705.273L392.02 705.273L406.06 746L396.832 746L386.631 714.58L386.313 714.58L376.091 746ZM375.514 729.991L397.31 729.991L397.31 736.713L375.514 736.713L375.514 729.991ZM432.126 716.986C431.967 715.382 431.284 714.135 430.077 713.247C428.871 712.359 427.234 711.915 425.165 711.915C423.76 711.915 422.574 712.114 421.606 712.511C420.638 712.896 419.896 713.433 419.379 714.122C418.875 714.812 418.623 715.594 418.623 716.469C418.596 717.198 418.749 717.834 419.08 718.378C419.425 718.921 419.896 719.392 420.492 719.79C421.089 720.174 421.778 720.512 422.56 720.804C423.343 721.082 424.178 721.321 425.066 721.52L428.725 722.395C430.502 722.793 432.132 723.323 433.617 723.986C435.102 724.649 436.388 725.464 437.475 726.432C438.562 727.4 439.404 728.54 440.001 729.852C440.611 731.165 440.922 732.669 440.935 734.366C440.922 736.859 440.286 739.02 439.026 740.849C437.78 742.666 435.977 744.078 433.617 745.085C431.271 746.08 428.44 746.577 425.126 746.577C421.838 746.577 418.974 746.073 416.535 745.065C414.109 744.058 412.213 742.566 410.847 740.591C409.495 738.602 408.786 736.143 408.719 733.213L417.052 733.213C417.145 734.579 417.536 735.719 418.225 736.634C418.928 737.535 419.862 738.218 421.029 738.682C422.209 739.133 423.541 739.358 425.026 739.358C426.485 739.358 427.751 739.146 428.825 738.722C429.912 738.297 430.754 737.707 431.35 736.952C431.947 736.196 432.245 735.328 432.245 734.347C432.245 733.432 431.973 732.663 431.43 732.04C430.899 731.417 430.117 730.886 429.083 730.449C428.062 730.011 426.809 729.614 425.325 729.256L420.89 728.142C417.456 727.307 414.745 726.001 412.756 724.224C410.768 722.448 409.78 720.055 409.793 717.045C409.78 714.58 410.436 712.425 411.762 710.582C413.101 708.74 414.937 707.301 417.271 706.267C419.604 705.233 422.255 704.716 425.225 704.716C428.248 704.716 430.886 705.233 433.14 706.267C435.407 707.301 437.17 708.74 438.43 710.582C439.689 712.425 440.339 714.56 440.379 716.986L432.126 716.986ZM445.176 712.372L445.176 705.273L478.625 705.273L478.625 712.372L466.156 712.372L466.156 746L457.645 746L457.645 712.372L445.176 712.372ZM506.227 716.986C506.068 715.382 505.385 714.135 504.179 713.247C502.973 712.359 501.335 711.915 499.267 711.915C497.862 711.915 496.675 712.114 495.707 712.511C494.74 712.896 493.997 713.433 493.48 714.122C492.976 714.812 492.724 715.594 492.724 716.469C492.698 717.198 492.85 717.834 493.182 718.378C493.527 718.921 493.997 719.392 494.594 719.79C495.19 720.174 495.88 720.512 496.662 720.804C497.444 721.082 498.279 721.321 499.168 721.52L502.827 722.395C504.603 722.793 506.234 723.323 507.719 723.986C509.204 724.649 510.49 725.464 511.577 726.432C512.664 727.4 513.506 728.54 514.102 729.852C514.712 731.165 515.024 732.669 515.037 734.366C515.024 736.859 514.387 739.02 513.128 740.849C511.882 742.666 510.079 744.078 507.719 745.085C505.372 746.08 502.542 746.577 499.227 746.577C495.939 746.577 493.076 746.073 490.636 745.065C488.21 744.058 486.314 742.566 484.949 740.591C483.597 738.602 482.887 736.143 482.821 733.213L491.153 733.213C491.246 734.579 491.637 735.719 492.327 736.634C493.029 737.535 493.964 738.218 495.131 738.682C496.311 739.133 497.643 739.358 499.128 739.358C500.586 739.358 501.852 739.146 502.926 738.722C504.013 738.297 504.855 737.707 505.452 736.952C506.048 736.196 506.347 735.328 506.347 734.347C506.347 733.432 506.075 732.663 505.531 732.04C505.001 731.417 504.219 730.886 503.185 730.449C502.164 730.011 500.911 729.614 499.426 729.256L494.991 728.142C491.558 727.307 488.847 726.001 486.858 724.224C484.869 722.448 483.882 720.055 483.895 717.045C483.882 714.58 484.538 712.425 485.864 710.582C487.203 708.74 489.039 707.301 491.372 706.267C493.705 705.233 496.357 704.716 499.327 704.716C502.349 704.716 504.988 705.233 507.241 706.267C509.509 707.301 511.272 708.74 512.531 710.582C513.791 712.425 514.44 714.56 514.48 716.986L506.227 716.986Z" fill="#002224"/>
<path d="M503.364 75.9659C498.922 75.9659 495.144 75.1241 492.028 73.4403C488.913 71.7699 486.533 69.4896 484.889 66.5994C483.259 63.7225 482.443 60.4877 482.443 56.8949C482.443 53.2756 483.265 50.0275 484.909 47.1506C486.553 44.2737 488.933 42 492.048 40.3295C495.164 38.6591 498.936 37.8239 503.364 37.8239C507.805 37.8239 511.583 38.6591 514.699 40.3295C517.814 42 520.188 44.2737 521.818 47.1506C523.462 50.0275 524.284 53.2756 524.284 56.8949C524.284 60.4877 523.462 63.7225 521.818 66.5994C520.188 69.4896 517.814 71.7699 514.699 73.4403C511.583 75.1241 507.805 75.9659 503.364 75.9659ZM503.364 67.2358C506.241 67.2358 508.667 66.8049 510.642 65.9432C512.617 65.0947 514.116 63.8949 515.136 62.3438C516.157 60.7926 516.668 58.9763 516.668 56.8949C516.668 54.8134 516.157 52.9972 515.136 51.446C514.116 49.8949 512.617 48.6884 510.642 47.8267C508.667 46.9782 506.241 46.554 503.364 46.554C500.487 46.554 498.061 46.9782 496.085 47.8267C494.11 48.6884 492.612 49.8949 491.591 51.446C490.57 52.9972 490.06 54.8134 490.06 56.8949C490.06 58.9763 490.57 60.7926 491.591 62.3438C492.612 63.8949 494.11 65.0947 496.085 65.9432C498.061 66.8049 500.487 67.2358 503.364 67.2358ZM483 95.3054H523.727V103.916H506.923V121.396H523.727V129.987H483V121.396H499.824V103.916H483V95.3054ZM483 144.107V134.879L523.727 148.939V160.036L483 174.075V164.848L514.42 154.646V154.328L483 144.107ZM499.009 143.53V165.325H492.287V143.53H499.009ZM509.469 212.998V204.288C510.596 204.129 511.597 203.804 512.472 203.313C513.36 202.823 514.116 202.193 514.739 201.424C515.362 200.655 515.839 199.767 516.17 198.759C516.502 197.765 516.668 196.684 516.668 195.518C516.668 193.41 516.144 191.574 515.097 190.009C514.063 188.445 512.551 187.232 510.562 186.37C508.587 185.508 506.188 185.077 503.364 185.077C500.46 185.077 498.021 185.508 496.045 186.37C494.07 187.245 492.579 188.465 491.571 190.029C490.563 191.594 490.06 193.403 490.06 195.458C490.06 196.612 490.212 197.679 490.517 198.66C490.822 199.654 491.266 200.536 491.849 201.305C492.446 202.074 493.169 202.71 494.017 203.214C494.866 203.731 495.833 204.089 496.92 204.288L496.881 212.998C495.011 212.772 493.208 212.209 491.472 211.308C489.748 210.419 488.204 209.219 486.838 207.708C485.486 206.21 484.412 204.42 483.616 202.339C482.834 200.271 482.443 197.931 482.443 195.319C482.443 191.686 483.265 188.438 484.909 185.575C486.553 182.724 488.933 180.47 492.048 178.813C495.164 177.169 498.936 176.347 503.364 176.347C507.805 176.347 511.583 177.183 514.699 178.853C517.814 180.523 520.188 182.79 521.818 185.654C523.462 188.518 524.284 191.739 524.284 195.319C524.284 197.679 523.953 199.866 523.29 201.881C522.627 203.91 521.659 205.706 520.386 207.271C519.127 208.835 517.582 210.108 515.753 211.089C513.923 212.083 511.829 212.719 509.469 212.998Z" fill="#002224"/>
<path d="M84.4023 379.777L247.891 665.773H112.964L84.4023 379.777Z" fill="#002224"/>
<path d="M400.548 57.602L440.927 384.085L384.79 333.26L365.092 341.874L320.773 342.736L287.287 318.616L279.408 277.267L295.166 250.563L249.862 209.214L208.497 253.147L212.437 271.237L200.618 306.556L163.193 330.676L128.722 331.537L86.3728 373.747L55.1523 32.8789L252.817 205.768L400.548 57.602Z" fill="#002224"/>
<path d="M170.087 229.887L197.664 265.206L181.906 306.555L137.586 319.476L101.146 301.386L90.3125 266.067L112.965 232.472L138.571 224.719L170.087 229.887Z" fill="#06B0BB"/>
<path d="M157.282 254.87L159.252 278.99L142.509 305.695L116.902 279.852L118.872 255.732L141.524 230.75L157.282 254.87Z" fill="#007C7C"/>
<path d="M170.085 291.912L169.1 299.665L162.206 302.25L156.297 294.497L164.176 289.328L170.085 291.912Z" fill="#C1F1F9"/>
<path d="M441.912 387.531L483.276 665.774H338.5L441.912 387.531Z" fill="#002224"/>
<path d="M318.805 221.276L364.405 178.023" stroke="#C1F1F9" stroke-width="2" stroke-miterlimit="10"/>
<path d="M412.661 154.066L364.105 178.203" stroke="#C1F1F9" stroke-width="2" stroke-miterlimit="10"/>
<path d="M341.453 220.413L371.296 199.629" stroke="#C1F1F9" stroke-width="2" stroke-miterlimit="10"/>
<path d="M416.304 185.094L371 199.738" stroke="#C1F1F9" stroke-width="2" stroke-miterlimit="10"/>
<path d="M351.305 229.026L378.193 213.25" stroke="#C1F1F9" stroke-width="2" stroke-miterlimit="10"/>
<path d="M418.274 203.184L377.895 213.521" stroke="#C1F1F9" stroke-width="2" stroke-miterlimit="10"/>
<path d="M91.2969 129.961L156.299 176.478" stroke="#C1F1F9" stroke-width="2" stroke-miterlimit="10"/>
<path d="M183.873 222.136L156.297 176.48" stroke="#C1F1F9" stroke-width="2" stroke-miterlimit="10"/>
<path d="M109.023 162.695L154.328 189.4" stroke="#C1F1F9" stroke-width="2" stroke-miterlimit="10"/>
<path d="M175.011 221.276L154.133 189.297" stroke="#C1F1F9" stroke-width="2" stroke-miterlimit="10"/>
<path d="M66.6758 154.082L137.587 190.262" stroke="#C1F1F9" stroke-width="2" stroke-miterlimit="10"/>
<path d="M159.254 210.076L137.391 190.234" stroke="#C1F1F9" stroke-width="2" stroke-miterlimit="10"/>
<path d="M393.654 260.038L402.518 291.049L377.896 324.645L323.728 325.506L298.121 288.465L313.879 251.423L350.319 239.363L393.654 260.038Z" fill="#06B0BB"/>
<path d="M381.836 309.139L374.941 315.169L367.062 309.139L374.941 303.109L381.836 309.139Z" fill="#C1F1F9"/>
<path d="M345.393 250.562L364.106 275.544L361.151 303.11L346.378 321.2L324.711 296.218L326.681 271.237L345.393 250.562Z" fill="#007C7C"/>
<path d="M442.897 384.085L443.882 387.531L339.387 665.774H247.794L82.4336 379.778L84.5018 373.748L127.245 331.538L162.11 330.677L199.929 306.557L211.945 271.238L207.907 253.148L249.764 209.215L295.56 250.564L279.605 277.268L287.583 318.617L321.462 342.737L366.274 341.875L386.169 333.261L442.897 384.085Z" fill="#C1F1F9"/>
<path d="M249.077 346.527L263.653 369.441L241.001 350.49L240.902 350.318L249.077 346.527Z" fill="#002224"/>
<path d="M227.21 345.32L233.119 353.935L198.648 370.302L227.21 345.32Z" fill="#002224"/>
<path d="M264.637 339.29L233.121 353.934L218.348 332.398L264.637 339.29Z" fill="#06B0BB"/>
</g>
<defs>
<clipPath id="clip0_801_1217">
<rect width="586" height="791" fill="white"/>
</clipPath>
</defs>
</svg>
