<svg width="50" height="53" viewBox="0 0 50 53" fill="none" xmlns="http://www.w3.org/2000/svg">
<path d="M16.7258 53C16.3299 52.7351 15.8597 52.8074 15.4144 52.7351C13.3111 52.3739 11.3069 51.7238 9.4511 50.7124C7.57058 49.701 5.93748 48.4489 4.50234 46.9078C3.63631 45.9927 2.91874 44.9814 2.30015 43.8978C-0.66911 38.7928 -0.669109 33.5434 1.75578 28.2699C2.79502 26.0545 4.40337 24.2004 6.33338 22.6352C7.59532 21.5756 9.00572 20.7088 10.5151 20.0345C13.1132 18.8787 15.8597 18.2767 18.73 18.3008C19.4971 18.3008 20.4373 18.9269 20.4126 19.9382C20.3879 22.6352 20.3879 25.3562 20.4126 28.0532C20.4126 29.0645 19.4723 29.6906 18.6311 29.7147C16.7753 29.7628 15.1669 30.3889 13.8802 31.7615C12.1234 33.6638 11.7523 35.8551 12.8905 38.0945C14.0287 40.358 16.1814 41.6824 19.027 41.5379C21.2539 41.4416 23.0107 40.4543 24.2479 38.552C24.8912 37.5647 25.1387 36.5293 25.1387 35.3975C25.1387 24.2485 25.1387 13.0754 25.1387 1.9264C25.1387 0.529759 25.7078 0 27.1182 0C29.939 0 32.7598 0 35.5806 0C36.7435 0 37.3621 0.577919 37.3869 1.6856C37.4611 3.99727 38.2776 6.06815 39.787 7.80191C41.7418 10.0654 44.3151 11.3417 47.3833 11.5825C47.804 11.6065 48.2246 11.6065 48.6453 11.6788C49.4618 11.8233 49.9567 12.3771 49.9814 13.1717C50.0062 15.9409 50.0062 18.6861 49.9814 21.4552C49.9814 22.4184 49.2639 23.0445 48.1999 23.0445C45.5523 23.0204 43.0037 22.6111 40.4798 21.7924C39.4406 21.4552 38.4508 20.9496 37.3621 20.5402C37.3621 20.781 37.3621 20.9736 37.3621 21.1422C37.3621 26.1749 37.3868 31.2076 37.3374 36.2403C37.3126 38.552 36.7683 40.7915 35.7043 42.8623C35.1104 43.9941 34.4671 45.1259 33.601 46.1131C32.2896 47.6302 30.805 48.9786 29.0729 50.0382C26.4748 51.6034 23.654 52.5906 20.5858 52.8555C20.5116 52.8555 20.4373 52.8796 20.4373 52.9518C19.2002 53 17.963 53 16.7258 53ZM28.4296 19.8419C28.4296 25.0913 28.4543 30.3167 28.4296 35.5661C28.4296 37.637 27.8357 39.5393 26.4006 41.1767C25.1634 42.6215 23.654 43.6329 21.823 44.2108C17.7898 45.4871 13.4843 44.3071 10.7873 40.96C8.11494 37.6611 8.56033 32.7006 11.1584 29.9555C12.6925 28.3421 14.4741 27.3067 16.6268 26.8492C16.9485 26.7769 17.0227 26.6565 16.998 26.3676C16.998 24.8987 16.9732 23.4298 16.998 21.9609C16.998 21.5756 16.8742 21.5034 16.5031 21.5516C12.2966 22.1536 8.882 24.08 6.20967 27.2826C5.29415 28.3903 4.60132 29.6906 4.13119 31.015C2.94349 34.2899 2.894 37.5888 4.40337 40.8396C5.02196 42.2122 5.69005 43.5366 6.77877 44.6202C7.4716 45.3185 8.13968 46.0409 8.95623 46.6429C11.01 48.184 13.3111 49.1954 15.835 49.6288C19.794 50.303 23.5056 49.6288 26.945 47.6302C28.6275 46.667 30.0379 45.3426 31.2256 43.8496C32.2649 42.5493 32.9082 41.0323 33.4526 39.5152C33.9475 38.1667 34.0217 36.746 34.0217 35.3253C34.0217 29.522 34.0217 23.7428 34.0217 17.9396C34.0217 17.2413 34.2444 16.6633 34.9125 16.3503C35.5558 16.0613 36.1744 16.1336 36.7683 16.5189C38.0302 17.3617 39.3911 18.0359 40.8262 18.5897C42.5336 19.2399 44.3151 19.6252 46.1214 19.8178C46.3936 19.8419 46.5421 19.8419 46.5421 19.5048C46.5173 17.9877 46.5173 16.4707 46.5421 14.9537C46.5421 14.6888 46.4431 14.5925 46.1709 14.5684C43.8202 14.2794 41.6923 13.4366 39.787 12.1363C37.7828 10.7637 36.2734 8.95775 35.1847 6.81463C34.665 5.77919 34.3434 4.67151 34.1949 3.51567C34.1454 3.17856 34.0217 3.08224 33.6753 3.08224C32.0917 3.10632 30.4833 3.10632 28.8997 3.08224C28.4296 3.08224 28.3554 3.20264 28.3801 3.61199C28.4296 9.05407 28.4296 14.448 28.4296 19.8419Z" fill="#253254"/>
</svg>
