<svg width="73" height="44" viewBox="0 0 73 44" fill="none" xmlns="http://www.w3.org/2000/svg">
<path d="M43.3964 11.413C43.3964 13.9999 43.3964 16.7391 43.3964 19.326C43.3964 19.4782 43.2395 19.7825 43.5534 19.9347C43.7103 20.0869 44.0242 19.7825 44.1811 19.7825C45.4365 19.0217 46.3781 17.9565 47.1628 16.8912C50.6153 12.4782 53.4401 7.76084 55.6371 2.73912C55.951 1.97825 56.2648 1.36956 56.8926 0.913039C57.6772 0.304346 58.4619 0 59.4035 0C62.0713 0 64.8961 0 67.5639 0C69.9179 0 72.2719 2.13043 71.0164 5.02172C68.9763 9.89127 66.1516 14.3043 63.0129 18.7173C62.0713 19.9347 61.1297 21.1521 60.502 22.3695C60.0312 23.2825 60.0312 23.4347 60.6589 24.1956C62.856 26.6303 65.3669 28.9129 67.5639 31.3477C69.604 33.6303 71.1734 35.9129 72.5858 38.652C73.8412 41.239 72.115 43.9781 69.1333 43.9781C65.9946 43.9781 62.856 43.9781 59.7173 43.9781C58.148 43.9781 57.0495 43.3694 56.2648 42.152C53.597 38.4999 50.3014 35.3042 46.692 32.5651C46.2212 32.2607 45.7504 31.9564 45.2796 31.8042C44.495 31.4999 44.495 31.6521 44.495 32.4129C44.495 34.239 44.495 35.9129 44.495 37.739C44.495 38.3477 44.495 38.9564 44.338 39.5651C43.7103 42.152 41.3563 43.8259 38.6885 43.9781C31.3127 44.2824 25.1923 41.3911 19.5428 36.8259C16.0903 34.0868 13.4225 30.5868 10.9116 26.9347C7.30212 21.4564 4.00655 15.826 1.65257 9.73909C1.02485 8.06519 0.554051 6.39128 0.0832553 4.71737C-0.38754 2.2826 1.18178 0.456519 3.69269 0.456519C6.36053 0.456519 9.02837 0.456519 11.6962 0.456519C13.5794 0.456519 14.6779 1.21739 15.3056 3.04347C16.718 6.8478 18.1304 10.8043 20.0136 14.3043C21.426 17.0434 23.1522 19.6304 25.1923 22.0651C25.6631 22.6738 26.2909 23.1303 26.9186 23.5869C27.2325 23.739 27.5463 23.739 27.5463 23.2825C27.5463 22.9782 27.7033 22.826 27.7033 22.5217C27.7033 18.5651 27.8602 14.6086 27.5463 10.6521C27.3894 9.1304 27.0755 7.76084 26.1339 6.54345C25.5062 5.78259 25.0354 5.02172 24.4077 4.26085C23.78 3.49999 23.78 2.58695 24.2508 1.67391C24.7216 0.760866 25.5062 0.456519 26.4478 0.456519C30.8419 0.456519 35.236 0.456519 39.6301 0.456519C41.8271 0.456519 43.2395 1.97825 43.2395 4.10868C43.3964 6.08693 43.3964 8.67388 43.3964 11.413ZM26.4478 2.43477C27.0755 3.34781 27.7033 4.26085 28.331 5.02172C29.1156 6.08693 29.7434 7.45649 29.9003 8.67388C30.0572 9.73909 30.2142 10.8043 30.2142 11.8695C30.2142 14.913 30.2142 18.1086 30.2142 21.1521C30.2142 21.913 30.2142 22.826 29.9003 23.5869C29.4295 25.4129 27.8602 26.0216 26.1339 25.2608C25.1923 24.8043 24.4077 24.0434 23.78 23.2825C22.0537 21.3043 20.4844 19.1738 19.2289 16.8912C16.718 12.6304 14.9918 8.06519 13.2655 3.49999C12.9517 2.58695 12.6378 2.43477 11.6962 2.43477C9.1853 2.43477 6.67439 2.43477 4.16348 2.43477C2.90803 2.43477 2.43723 3.04347 2.7511 4.26085C3.06496 5.93476 3.53576 7.45649 4.16348 9.1304C6.67439 15.826 10.4408 21.913 14.6779 27.8477C16.875 30.8912 19.3859 33.6303 22.5245 35.9129C27.0755 39.2607 32.0973 41.5433 38.0608 41.5433C40.8855 41.5433 42.2979 40.1738 42.2979 37.4346C42.2979 35.6086 42.2979 33.7825 42.2979 31.8042C42.2979 29.6738 44.0242 28.6086 46.0643 29.2173C47.0059 29.5216 47.7905 29.826 48.5752 30.4347C52.4985 33.326 55.951 36.6738 58.7758 40.6303C59.0896 41.0868 59.5604 41.3911 60.1881 41.3911C63.3268 41.3911 66.3085 41.3911 69.4471 41.3911C70.7026 41.3911 71.1734 40.6303 70.7026 39.4129C69.2902 36.6738 67.407 34.239 65.3669 32.1086C63.1698 29.826 60.9728 27.3912 58.7758 25.1086C57.8342 24.1956 57.8342 23.1303 58.305 22.0651C58.6188 21.4564 58.9327 20.8477 59.4035 20.2391C61.2867 17.4999 63.4837 14.913 65.21 12.0217C66.7793 9.43475 68.3486 6.99997 69.2902 4.10868C69.6041 3.04347 69.2902 2.43477 68.1917 2.43477C65.3669 2.43477 62.5421 2.43477 59.7173 2.43477C59.0896 2.43477 58.7758 2.73912 58.4619 3.19564C57.8342 4.5652 57.3634 5.93476 56.5787 7.30432C54.2247 11.413 52.0277 15.5217 48.889 19.1738C47.9475 20.2391 47.0059 21.4564 45.5935 22.0651C43.0826 23.1303 41.1994 21.913 41.1994 19.6304C41.1994 14.3043 41.1994 9.1304 41.1994 3.80433C41.1994 2.73912 40.8855 2.2826 39.6301 2.2826C35.3929 2.2826 31.1558 2.2826 26.9186 2.2826C26.7617 2.43477 26.7617 2.43477 26.4478 2.43477Z" fill="#253254"/>
</svg>
