<svg width="50" height="36" viewBox="0 0 50 36" fill="none" xmlns="http://www.w3.org/2000/svg">
<g clip-path="url(#clip0_737_1067)">
<path d="M2.53906 0.45C2.6001 0.5375 2.63672 0.575 2.66113 0.6125C9.04541 7.1125 15.4175 13.6125 21.8018 20.1125C22.29 20.6125 22.8394 21.0125 23.5107 21.2375C25.3784 21.8625 26.9531 21.3625 28.3203 19.975C34.5947 13.5875 40.8569 7.2 47.1191 0.825C47.229 0.7125 47.3389 0.5875 47.4609 0.45C46.8384 0.1375 46.2158 0 45.5566 0C31.8481 0 18.1519 0 4.44336 0C3.78418 0 3.16162 0.1375 2.53906 0.45ZM2.53906 35.5375C3.22266 35.9 3.93066 36 4.66309 36C18.2251 36 31.7749 36 45.3369 36C45.52 36 45.6909 36 45.874 35.9875C46.4111 35.9375 46.9482 35.825 47.4487 35.5375C47.3267 35.4 47.229 35.2875 47.1191 35.1875C44.3726 32.3875 41.626 29.5875 38.8794 26.8C36.8042 24.6875 34.7168 22.575 32.6538 20.45C32.373 20.1625 32.2388 20.175 31.9824 20.4625C31.4331 21.075 30.8472 21.65 30.2612 22.2375C27.4902 25 23.4863 25.2875 20.4956 22.925C19.5923 22.2125 18.8355 21.325 18.042 20.4875C17.7368 20.1625 17.5903 20.2 17.2974 20.5C12.5 25.4 7.70264 30.275 2.89307 35.1625C2.7832 35.275 2.67334 35.4 2.53906 35.5375ZM0.439453 33.4125C0.585938 33.2625 0.695801 33.1625 0.793457 33.0625C5.61523 28.1625 10.4248 23.2625 15.2466 18.375C15.5518 18.0625 15.5396 17.9125 15.2466 17.6125C10.437 12.7375 5.63965 7.85 0.842285 2.975C0.720215 2.85 0.622559 2.6875 0.439453 2.625C0.146484 3.2375 0 3.8875 0 4.5625C0 13.525 0 22.4875 0 31.45C0 32.125 0.134277 32.7625 0.439453 33.4125Z" fill="#93CEF0"/>
<path d="M50.0003 32.3008C49.8538 32.6633 49.7196 33.0133 49.5731 33.4008C49.4632 33.3008 49.3533 33.2133 49.2679 33.1258C44.4217 28.1883 39.5755 23.2633 34.7171 18.3258C34.4974 18.1133 34.3997 17.9883 34.6805 17.7133C39.5755 12.7508 44.4583 7.78828 49.3411 2.81328C49.4144 2.73828 49.4876 2.68828 49.5609 2.61328C49.8172 2.98828 49.8172 3.42578 50.0125 3.80078C50.0003 13.3008 50.0003 22.8008 50.0003 32.3008Z" fill="#93CEF0"/>
<path d="M2.53906 0.45C3.16162 0.1375 3.78418 0 4.44336 0C18.1519 0 31.8481 0 45.5566 0C46.2158 0 46.8384 0.1375 47.4609 0.45C47.3389 0.5875 47.229 0.7 47.1191 0.825C40.8569 7.2125 34.5947 13.5875 28.3325 19.975C26.9653 21.3625 25.3906 21.8625 23.5229 21.2375C22.8638 21.0125 22.3022 20.6125 21.814 20.1125C15.4297 13.6125 9.05762 7.1125 2.67334 0.6125C2.63672 0.575 2.6123 0.5375 2.53906 0.45Z" fill="#93CEF0"/>
<path d="M2.53906 35.5376C2.67334 35.4001 2.7832 35.2751 2.89307 35.1626C7.69043 30.2751 12.5 25.3876 17.2974 20.5001C17.5903 20.2001 17.7368 20.1626 18.042 20.4876C18.8354 21.3251 19.5923 22.2001 20.4956 22.9251C23.4863 25.2876 27.4902 25.0001 30.2612 22.2376C30.8472 21.6501 31.4331 21.0751 31.9824 20.4626C32.2388 20.1876 32.3853 20.1751 32.6538 20.4501C34.7168 22.5751 36.8042 24.6876 38.8794 26.8001C41.626 29.6001 44.3726 32.3876 47.1191 35.1876C47.2168 35.2876 47.3145 35.4001 47.4487 35.5376C46.936 35.8251 46.4111 35.9376 45.874 35.9876C45.6909 36.0001 45.52 36.0001 45.3369 36.0001C31.7749 36.0001 18.2251 36.0001 4.66309 36.0001C3.93066 36.0001 3.23486 35.9001 2.53906 35.5376Z" fill="#93CEF0"/>
<path d="M0.439453 33.4125C0.134277 32.7625 0 32.125 0 31.45C0 22.4875 0 13.525 0 4.5625C0 3.8875 0.146484 3.2375 0.427246 2.625C0.610352 2.675 0.708008 2.85 0.830078 2.975C5.62744 7.8625 10.4248 12.75 15.2344 17.6125C15.5273 17.9125 15.5518 18.0625 15.2344 18.375C10.4248 23.2625 5.61523 28.1625 0.805664 33.0625C0.695801 33.1625 0.585937 33.2625 0.439453 33.4125Z" fill="#93CEF0"/>
</g>
<defs>
<clipPath id="clip0_737_1067">
<rect width="50" height="36" fill="white"/>
</clipPath>
</defs>
</svg>
